<?xml version="1.0" encoding="utf-8"?>
<!-- Generator: Adobe Illustrator 16.0.0, SVG Export Plug-In . SVG Version: 6.00 Build 0)  -->
<!DOCTYPE svg PUBLIC "-//W3C//DTD SVG 1.1//EN" "http://www.w3.org/Graphics/SVG/1.1/DTD/svg11.dtd">
<svg version="1.1" id="Layer_1" xmlns="http://www.w3.org/2000/svg" xmlns:xlink="http://www.w3.org/1999/xlink" x="0px" y="0px"
	 width="740px" height="440px" viewBox="0 0 740 440" enable-background="new 0 0 740 440" xml:space="preserve">
<g>
	<path fill="none" stroke="#000000" stroke-width="26" stroke-miterlimit="10" d="M441,107c0-6.627-5.373-12-12-12H311
		c-6.627,0-12,5.373-12,12v226c0,6.627,5.373,12,12,12h118c6.627,0,12-5.373,12-12V107z"/>
	<rect x="302" y="306" width="132" height="35"/>
</g>
<circle fill="#FFFFFF" cx="370" cy="330.5" r="13"/>
<g>
	<g>
		<path fill="none" stroke="#000000" stroke-width="19" stroke-miterlimit="10" d="M559.288,240.869
			c0-3.233-2.621-5.855-5.855-5.855h-57.577c-3.234,0-5.855,2.622-5.855,5.855v110.275c0,3.234,2.621,5.855,5.855,5.855h57.577
			c3.234,0,5.855-2.621,5.855-5.855V240.869z"/>
		<rect x="491.464" y="337.97" width="64.409" height="17.078"/>
	</g>
	<circle fill="#FFFFFF" cx="524.644" cy="349.925" r="6.343"/>
</g>
<g>
	<g>
		<path fill="none" stroke="#000000" stroke-width="26" stroke-miterlimit="10" d="M695.288,131.968c0-4.4-3.567-7.968-7.968-7.968
			h-78.353c-4.4,0-7.968,3.567-7.968,7.968v150.064c0,4.4,3.567,7.968,7.968,7.968h78.353c4.4,0,7.968-3.567,7.968-7.968V131.968z"
			/>
		<rect x="602.992" y="264.104" width="87.648" height="23.24"/>
	</g>
	<circle fill="#FFFFFF" cx="648.144" cy="280.372" r="8.632"/>
</g>
<g>
	<g>
		<path fill="none" stroke="#000000" stroke-width="26" stroke-miterlimit="10" d="M250.288,64.504c0-5.249-4.255-9.504-9.504-9.504
			h-93.457c-5.249,0-9.503,4.255-9.503,9.504v178.992c0,5.249,4.255,9.504,9.503,9.504h93.457c5.249,0,9.504-4.255,9.504-9.504
			V64.504z"/>
		<rect x="140.2" y="222.111" width="104.544" height="27.721"/>
	</g>
	<circle fill="#FFFFFF" cx="194.056" cy="241.516" r="10.296"/>
</g>
<g>
	<g>
		<path fill="none" stroke="#000000" stroke-width="19" stroke-miterlimit="10" d="M104.288,196.869
			c0-3.233-2.621-5.855-5.855-5.855H40.855c-3.234,0-5.855,2.622-5.855,5.855v110.275c0,3.234,2.621,5.855,5.855,5.855h57.577
			c3.234,0,5.855-2.621,5.855-5.855V196.869z"/>
		<rect x="36.464" y="293.97" width="64.409" height="17.078"/>
	</g>
	<circle fill="#FFFFFF" cx="69.644" cy="305.925" r="6.343"/>
</g>
<g>
	<g>
		<path fill="none" stroke="#000000" stroke-width="15" stroke-miterlimit="10" d="M222.112,295.333
			c0-2.386-1.934-4.319-4.319-4.319h-42.474c-2.386,0-4.319,1.934-4.319,4.319v81.348c0,2.386,1.934,4.319,4.319,4.319h42.474
			c2.386,0,4.319-1.934,4.319-4.319V295.333z"/>
		<rect x="172.08" y="366.962" width="47.513" height="12.598"/>
	</g>
	<circle fill="#FFFFFF" cx="196.556" cy="375.781" r="4.679"/>
</g>
<g>
	<g>
		<path fill="none" stroke="#000000" stroke-width="15" stroke-miterlimit="10" d="M559.612,56.152c0-2.386-1.934-4.319-4.319-4.319
			h-42.474c-2.386,0-4.319,1.934-4.319,4.319V137.5c0,2.386,1.934,4.319,4.319,4.319h42.474c2.386,0,4.319-1.934,4.319-4.319V56.152
			z"/>
		<rect x="509.58" y="127.781" width="47.513" height="12.598"/>
	</g>
	<circle fill="#FFFFFF" cx="534.056" cy="136.601" r="4.679"/>
</g>
<g>
	<line fill="none" stroke="#F2D64A" stroke-width="2" stroke-miterlimit="10" x1="169.5" y1="132.065" x2="181.729" y2="116.167"/>
	
		<line fill="none" stroke="#F2D64A" stroke-width="2" stroke-miterlimit="10" x1="181.729" y1="116.167" x2="200.074" y2="108.829"/>
	<line fill="none" stroke="#F2D64A" stroke-width="2" stroke-miterlimit="10" x1="200.074" y1="108.829" x2="214.75" y2="141.849"/>
	<line fill="none" stroke="#F2D64A" stroke-width="2" stroke-miterlimit="10" x1="214.75" y1="141.849" x2="173.168" y2="141.849"/>
	<line fill="none" stroke="#F2D64A" stroke-width="2" stroke-miterlimit="10" x1="173.168" y1="141.849" x2="169.5" y2="132.065"/>
	
		<line fill="none" stroke="#F2D64A" stroke-width="2" stroke-miterlimit="10" x1="173.168" y1="141.849" x2="181.729" y2="116.167"/>
	
		<line fill="none" stroke="#F2D64A" stroke-width="2" stroke-miterlimit="10" x1="177.245" y1="130.843" x2="200.074" y2="108.829"/>
	<line fill="none" stroke="#F2D64A" stroke-width="2" stroke-miterlimit="10" x1="189.067" y1="119.021" x2="214.75" y2="141.849"/>
	<line fill="none" stroke="#F2D64A" stroke-width="2" stroke-miterlimit="10" x1="173.168" y1="141.849" x2="201.297" y2="129.62"/>
	<line fill="none" stroke="#F2D64A" stroke-width="2" stroke-miterlimit="10" x1="201.297" y1="129.62" x2="199.666" y2="110.052"/>
	<g>
		<ellipse fill="#F2D64A" cx="191.437" cy="162.589" rx="3.898" ry="3.669"/>
		<polygon fill="#F2D64A" points="187.611,161.645 191.413,151.178 195.214,161.645 		"/>
	</g>
	<g>
		<ellipse fill="#F2D64A" cx="206.397" cy="170.216" rx="3.266" ry="3.074"/>
		<polygon fill="#F2D64A" points="203.192,169.424 206.377,160.656 209.562,169.424 		"/>
	</g>
	<g>
		<ellipse fill="#F2D64A" cx="179.619" cy="155.061" rx="2.475" ry="2.33"/>
		<polygon fill="#F2D64A" points="177.189,154.461 179.604,147.814 182.018,154.461 		"/>
	</g>
	<g>
		<ellipse fill="#F2D64A" cx="201.603" cy="154.079" rx="1.758" ry="1.655"/>
		<polygon fill="#F2D64A" points="199.877,153.653 201.592,148.933 203.306,153.653 		"/>
	</g>
	<g>
		<ellipse fill="#F2D64A" cx="183.182" cy="174.729" rx="2.369" ry="2.23"/>
		<polygon fill="#F2D64A" points="180.856,174.155 183.167,167.792 185.477,174.155 		"/>
	</g>
</g>
<g>
	
		<line fill="none" stroke="#F2D64A" stroke-width="2" stroke-miterlimit="10" x1="339.047" y1="181.686" x2="355.778" y2="159.935"/>
	
		<line fill="none" stroke="#F2D64A" stroke-width="2" stroke-miterlimit="10" x1="355.778" y1="159.935" x2="380.875" y2="149.896"/>
	
		<line fill="none" stroke="#F2D64A" stroke-width="2" stroke-miterlimit="10" x1="380.875" y1="149.896" x2="400.953" y2="195.071"/>
	
		<line fill="none" stroke="#F2D64A" stroke-width="2" stroke-miterlimit="10" x1="400.953" y1="195.071" x2="344.066" y2="195.071"/>
	
		<line fill="none" stroke="#F2D64A" stroke-width="2" stroke-miterlimit="10" x1="344.066" y1="195.071" x2="339.047" y2="181.686"/>
	
		<line fill="none" stroke="#F2D64A" stroke-width="2" stroke-miterlimit="10" x1="344.066" y1="195.071" x2="355.778" y2="159.935"/>
	
		<line fill="none" stroke="#F2D64A" stroke-width="2" stroke-miterlimit="10" x1="349.643" y1="180.013" x2="380.875" y2="149.896"/>
	
		<line fill="none" stroke="#F2D64A" stroke-width="2" stroke-miterlimit="10" x1="365.817" y1="163.839" x2="400.953" y2="195.071"/>
	<line fill="none" stroke="#F2D64A" stroke-width="2" stroke-miterlimit="10" x1="344.066" y1="195.071" x2="382.549" y2="178.34"/>
	<line fill="none" stroke="#F2D64A" stroke-width="2" stroke-miterlimit="10" x1="382.549" y1="178.34" x2="380.316" y2="151.57"/>
	<g>
		<ellipse fill="#F2D64A" cx="369.059" cy="223.444" rx="5.333" ry="5.02"/>
		<polygon fill="#F2D64A" points="363.824,222.153 369.026,207.834 374.226,222.153 		"/>
	</g>
	<g>
		<ellipse fill="#F2D64A" cx="389.526" cy="233.88" rx="4.468" ry="4.205"/>
		<polygon fill="#F2D64A" points="385.142,232.796 389.5,220.801 393.855,232.796 		"/>
	</g>
	<g>
		<ellipse fill="#F2D64A" cx="352.891" cy="213.146" rx="3.387" ry="3.188"/>
		<polygon fill="#F2D64A" points="349.566,212.326 352.87,203.232 356.172,212.326 		"/>
	</g>
	<g>
		<ellipse fill="#F2D64A" cx="382.967" cy="211.803" rx="2.405" ry="2.264"/>
		<polygon fill="#F2D64A" points="380.607,211.221 382.952,204.762 385.297,211.221 		"/>
	</g>
	<g>
		<ellipse fill="#F2D64A" cx="357.765" cy="240.054" rx="3.242" ry="3.051"/>
		<polygon fill="#F2D64A" points="354.584,239.269 357.746,230.563 360.906,239.269 		"/>
	</g>
</g>
<g>
	<line fill="none" stroke="#F2D64A" stroke-width="2" stroke-miterlimit="10" x1="187" y1="324.962" x2="192.243" y2="318.146"/>
	<line fill="none" stroke="#F2D64A" stroke-width="2" stroke-miterlimit="10" x1="192.243" y1="318.146" x2="200.108" y2="315"/>
	<line fill="none" stroke="#F2D64A" stroke-width="2" stroke-miterlimit="10" x1="200.108" y1="315" x2="206.399" y2="329.156"/>
	
		<line fill="none" stroke="#F2D64A" stroke-width="2" stroke-miterlimit="10" x1="206.399" y1="329.156" x2="188.573" y2="329.156"/>
	<line fill="none" stroke="#F2D64A" stroke-width="2" stroke-miterlimit="10" x1="188.573" y1="329.156" x2="187" y2="324.962"/>
	
		<line fill="none" stroke="#F2D64A" stroke-width="2" stroke-miterlimit="10" x1="188.573" y1="329.156" x2="192.243" y2="318.146"/>
	<line fill="none" stroke="#F2D64A" stroke-width="2" stroke-miterlimit="10" x1="190.32" y1="324.438" x2="200.108" y2="315"/>
	
		<line fill="none" stroke="#F2D64A" stroke-width="2" stroke-miterlimit="10" x1="195.389" y1="319.369" x2="206.399" y2="329.156"/>
	
		<line fill="none" stroke="#F2D64A" stroke-width="2" stroke-miterlimit="10" x1="188.573" y1="329.156" x2="200.632" y2="323.913"/>
	
		<line fill="none" stroke="#F2D64A" stroke-width="2" stroke-miterlimit="10" x1="200.632" y1="323.913" x2="199.933" y2="315.524"/>
	<g>
		<ellipse fill="#F2D64A" cx="196.405" cy="338.048" rx="1.671" ry="1.573"/>
		<polygon fill="#F2D64A" points="194.765,337.643 196.395,333.156 198.024,337.643 		"/>
	</g>
	<g>
		<ellipse fill="#F2D64A" cx="202.819" cy="341.318" rx="1.4" ry="1.317"/>
		<polygon fill="#F2D64A" points="201.444,340.979 202.81,337.219 204.175,340.979 		"/>
	</g>
	<g>
		<ellipse fill="#F2D64A" cx="191.338" cy="334.82" rx="1.061" ry="1"/>
		<polygon fill="#F2D64A" points="190.296,334.563 191.332,331.714 192.366,334.563 		"/>
	</g>
	<g>
		<ellipse fill="#F2D64A" cx="200.763" cy="334.399" rx="0.754" ry="0.71"/>
		<polygon fill="#F2D64A" points="200.023,334.217 200.759,332.193 201.493,334.217 		"/>
	</g>
	<g>
		<ellipse fill="#F2D64A" cx="192.866" cy="343.252" rx="1.016" ry="0.957"/>
		<polygon fill="#F2D64A" points="191.869,343.007 192.859,340.278 193.85,343.007 		"/>
	</g>
</g>
<g>
	<line fill="none" stroke="#F2D64A" stroke-width="2" stroke-miterlimit="10" x1="52.5" y1="238.969" x2="61.419" y2="227.374"/>
	<line fill="none" stroke="#F2D64A" stroke-width="2" stroke-miterlimit="10" x1="61.419" y1="227.374" x2="74.797" y2="222.022"/>
	<line fill="none" stroke="#F2D64A" stroke-width="2" stroke-miterlimit="10" x1="74.797" y1="222.022" x2="85.5" y2="246.104"/>
	<line fill="none" stroke="#F2D64A" stroke-width="2" stroke-miterlimit="10" x1="85.5" y1="246.104" x2="55.176" y2="246.104"/>
	<line fill="none" stroke="#F2D64A" stroke-width="2" stroke-miterlimit="10" x1="55.176" y1="246.104" x2="52.5" y2="238.969"/>
	<line fill="none" stroke="#F2D64A" stroke-width="2" stroke-miterlimit="10" x1="55.176" y1="246.104" x2="61.419" y2="227.374"/>
	<line fill="none" stroke="#F2D64A" stroke-width="2" stroke-miterlimit="10" x1="58.148" y1="238.076" x2="74.797" y2="222.022"/>
	<line fill="none" stroke="#F2D64A" stroke-width="2" stroke-miterlimit="10" x1="66.771" y1="229.455" x2="85.5" y2="246.104"/>
	<line fill="none" stroke="#F2D64A" stroke-width="2" stroke-miterlimit="10" x1="55.176" y1="246.104" x2="75.689" y2="237.185"/>
	<line fill="none" stroke="#F2D64A" stroke-width="2" stroke-miterlimit="10" x1="75.689" y1="237.185" x2="74.5" y2="222.914"/>
	<g>
		<ellipse fill="#F2D64A" cx="68.498" cy="261.229" rx="2.843" ry="2.676"/>
		<polygon fill="#F2D64A" points="65.708,260.54 68.48,252.906 71.253,260.54 		"/>
	</g>
	<g>
		<ellipse fill="#F2D64A" cx="79.409" cy="266.791" rx="2.382" ry="2.242"/>
		<polygon fill="#F2D64A" points="77.071,266.214 79.394,259.818 81.717,266.214 		"/>
	</g>
	<g>
		<ellipse fill="#F2D64A" cx="59.88" cy="255.738" rx="1.805" ry="1.7"/>
		<polygon fill="#F2D64A" points="58.107,255.301 59.869,250.454 61.629,255.301 		"/>
	</g>
	<g>
		<ellipse fill="#F2D64A" cx="75.912" cy="255.022" rx="1.282" ry="1.207"/>
		<polygon fill="#F2D64A" points="74.654,254.713 75.904,251.27 77.154,254.713 		"/>
	</g>
	<g>
		<ellipse fill="#F2D64A" cx="62.478" cy="270.082" rx="1.728" ry="1.627"/>
		<polygon fill="#F2D64A" points="60.782,269.664 62.467,265.023 64.152,269.664 		"/>
	</g>
</g>
<g>
	<line fill="none" stroke="#F2D64A" stroke-width="2" stroke-miterlimit="10" x1="511" y1="282.429" x2="518.567" y2="272.591"/>
	
		<line fill="none" stroke="#F2D64A" stroke-width="2" stroke-miterlimit="10" x1="518.567" y1="272.591" x2="529.919" y2="268.051"/>
	<line fill="none" stroke="#F2D64A" stroke-width="2" stroke-miterlimit="10" x1="529.919" y1="268.051" x2="539" y2="288.483"/>
	<line fill="none" stroke="#F2D64A" stroke-width="2" stroke-miterlimit="10" x1="539" y1="288.483" x2="513.271" y2="288.483"/>
	<line fill="none" stroke="#F2D64A" stroke-width="2" stroke-miterlimit="10" x1="513.271" y1="288.483" x2="511" y2="282.429"/>
	
		<line fill="none" stroke="#F2D64A" stroke-width="2" stroke-miterlimit="10" x1="513.271" y1="288.483" x2="518.567" y2="272.591"/>
	
		<line fill="none" stroke="#F2D64A" stroke-width="2" stroke-miterlimit="10" x1="515.793" y1="281.672" x2="529.919" y2="268.051"/>
	<line fill="none" stroke="#F2D64A" stroke-width="2" stroke-miterlimit="10" x1="523.108" y1="274.357" x2="539" y2="288.483"/>
	
		<line fill="none" stroke="#F2D64A" stroke-width="2" stroke-miterlimit="10" x1="513.271" y1="288.483" x2="530.676" y2="280.916"/>
	
		<line fill="none" stroke="#F2D64A" stroke-width="2" stroke-miterlimit="10" x1="530.676" y1="280.916" x2="529.666" y2="268.808"/>
	<g>
		<ellipse fill="#F2D64A" cx="524.574" cy="301.316" rx="2.412" ry="2.271"/>
		<polygon fill="#F2D64A" points="522.207,300.732 524.56,294.256 526.911,300.732 		"/>
	</g>
	<g>
		<ellipse fill="#F2D64A" cx="533.832" cy="306.036" rx="2.021" ry="1.902"/>
		<polygon fill="#F2D64A" points="531.849,305.547 533.819,300.12 535.79,305.547 		"/>
	</g>
	<g>
		<ellipse fill="#F2D64A" cx="517.262" cy="296.658" rx="1.532" ry="1.442"/>
		<polygon fill="#F2D64A" points="515.758,296.287 517.252,292.175 518.746,296.287 		"/>
	</g>
	<g>
		<ellipse fill="#F2D64A" cx="530.865" cy="296.051" rx="1.088" ry="1.024"/>
		<polygon fill="#F2D64A" points="529.798,295.787 530.858,292.866 531.919,295.787 		"/>
	</g>
	<g>
		<ellipse fill="#F2D64A" cx="519.466" cy="308.828" rx="1.466" ry="1.381"/>
		<polygon fill="#F2D64A" points="518.027,308.474 519.457,304.536 520.887,308.474 		"/>
	</g>
</g>
<g>
	<line fill="none" stroke="#F2D64A" stroke-width="2" stroke-miterlimit="10" x1="628.5" y1="188.205" x2="639.397" y2="174.039"/>
	<line fill="none" stroke="#F2D64A" stroke-width="2" stroke-miterlimit="10" x1="639.397" y1="174.039" x2="655.743" y2="167.5"/>
	<line fill="none" stroke="#F2D64A" stroke-width="2" stroke-miterlimit="10" x1="655.743" y1="167.5" x2="668.82" y2="196.923"/>
	<line fill="none" stroke="#F2D64A" stroke-width="2" stroke-miterlimit="10" x1="668.82" y1="196.923" x2="631.769" y2="196.923"/>
	<line fill="none" stroke="#F2D64A" stroke-width="2" stroke-miterlimit="10" x1="631.769" y1="196.923" x2="628.5" y2="188.205"/>
	
		<line fill="none" stroke="#F2D64A" stroke-width="2" stroke-miterlimit="10" x1="631.769" y1="196.923" x2="639.397" y2="174.039"/>
	<line fill="none" stroke="#F2D64A" stroke-width="2" stroke-miterlimit="10" x1="635.401" y1="187.116" x2="655.743" y2="167.5"/>
	<line fill="none" stroke="#F2D64A" stroke-width="2" stroke-miterlimit="10" x1="645.936" y1="176.581" x2="668.82" y2="196.923"/>
	
		<line fill="none" stroke="#F2D64A" stroke-width="2" stroke-miterlimit="10" x1="631.769" y1="196.923" x2="656.834" y2="186.026"/>
	<line fill="none" stroke="#F2D64A" stroke-width="2" stroke-miterlimit="10" x1="656.834" y1="186.026" x2="655.38" y2="168.59"/>
	<g>
		<ellipse fill="#F2D64A" cx="648.047" cy="215.404" rx="3.474" ry="3.269"/>
		<polygon fill="#F2D64A" points="644.637,214.562 648.026,205.236 651.412,214.562 		"/>
	</g>
	<g>
		<ellipse fill="#F2D64A" cx="661.378" cy="222.199" rx="2.91" ry="2.74"/>
		<polygon fill="#F2D64A" points="658.522,221.494 661.361,213.681 664.197,221.494 		"/>
	</g>
	<g>
		<ellipse fill="#F2D64A" cx="637.517" cy="208.696" rx="2.207" ry="2.076"/>
		<polygon fill="#F2D64A" points="635.351,208.162 637.504,202.239 639.653,208.162 		"/>
	</g>
	<g>
		<ellipse fill="#F2D64A" cx="657.106" cy="207.821" rx="1.567" ry="1.474"/>
		<polygon fill="#F2D64A" points="655.569,207.441 657.097,203.235 658.623,207.441 		"/>
	</g>
	<g>
		<ellipse fill="#F2D64A" cx="640.691" cy="226.221" rx="2.111" ry="1.988"/>
		<polygon fill="#F2D64A" points="638.619,225.711 640.679,220.04 642.736,225.711 		"/>
	</g>
</g>
<g>
	<line fill="none" stroke="#F2D64A" stroke-width="2" stroke-miterlimit="10" x1="523.5" y1="87.708" x2="529.493" y2="79.917"/>
	<line fill="none" stroke="#F2D64A" stroke-width="2" stroke-miterlimit="10" x1="529.493" y1="79.917" x2="538.483" y2="76.32"/>
	<line fill="none" stroke="#F2D64A" stroke-width="2" stroke-miterlimit="10" x1="538.483" y1="76.32" x2="545.676" y2="92.502"/>
	<line fill="none" stroke="#F2D64A" stroke-width="2" stroke-miterlimit="10" x1="545.676" y1="92.502" x2="525.298" y2="92.502"/>
	<line fill="none" stroke="#F2D64A" stroke-width="2" stroke-miterlimit="10" x1="525.298" y1="92.502" x2="523.5" y2="87.708"/>
	<line fill="none" stroke="#F2D64A" stroke-width="2" stroke-miterlimit="10" x1="525.298" y1="92.502" x2="529.493" y2="79.917"/>
	<line fill="none" stroke="#F2D64A" stroke-width="2" stroke-miterlimit="10" x1="527.296" y1="87.109" x2="538.483" y2="76.32"/>
	<line fill="none" stroke="#F2D64A" stroke-width="2" stroke-miterlimit="10" x1="533.09" y1="81.315" x2="545.676" y2="92.502"/>
	<line fill="none" stroke="#F2D64A" stroke-width="2" stroke-miterlimit="10" x1="525.298" y1="92.502" x2="539.082" y2="86.51"/>
	<line fill="none" stroke="#F2D64A" stroke-width="2" stroke-miterlimit="10" x1="539.082" y1="86.51" x2="538.283" y2="76.92"/>
	<g>
		<ellipse fill="#F2D64A" cx="534.25" cy="102.667" rx="1.911" ry="1.798"/>
		<polygon fill="#F2D64A" points="532.375,102.204 534.238,97.074 536.102,102.204 		"/>
	</g>
	<g>
		<ellipse fill="#F2D64A" cx="541.582" cy="106.404" rx="1.601" ry="1.506"/>
		<polygon fill="#F2D64A" points="540.012,106.016 541.572,101.719 543.133,106.016 		"/>
	</g>
	<g>
		<ellipse fill="#F2D64A" cx="528.459" cy="98.978" rx="1.213" ry="1.142"/>
		<polygon fill="#F2D64A" points="527.269,98.684 528.451,95.426 529.635,98.684 		"/>
	</g>
	<g>
		<ellipse fill="#F2D64A" cx="539.233" cy="98.496" rx="0.862" ry="0.811"/>
		<polygon fill="#F2D64A" points="538.388,98.288 539.228,95.974 540.067,98.288 		"/>
	</g>
	<g>
		<ellipse fill="#F2D64A" cx="530.205" cy="108.616" rx="1.161" ry="1.093"/>
		<polygon fill="#F2D64A" points="529.065,108.334 530.198,105.216 531.33,108.334 		"/>
	</g>
</g>
</svg>
