<?xml version="1.0" encoding="utf-8"?>
<!-- Generator: Adobe Illustrator 16.0.0, SVG Export Plug-In . SVG Version: 6.00 Build 0)  -->
<!DOCTYPE svg PUBLIC "-//W3C//DTD SVG 1.1//EN" "http://www.w3.org/Graphics/SVG/1.1/DTD/svg11.dtd">
<svg version="1.1" id="Layer_1" xmlns="http://www.w3.org/2000/svg" xmlns:xlink="http://www.w3.org/1999/xlink" x="0px" y="0px"
	 width="740px" height="440px" viewBox="0 0 740 440" enable-background="new 0 0 740 440" xml:space="preserve">
<g>
	
		<rect x="62.997" y="113" transform="matrix(-0.7071 0.7071 -0.7071 -0.7071 445.7661 255.3562)" fill="#F2D64A" width="213.999" height="213.998"/>
	
		<rect x="202.997" y="113.001" transform="matrix(-0.7071 0.7071 -0.7071 -0.7071 684.7593 156.3629)" fill="#F2D64A" width="213.999" height="213.998"/>
	
		<rect x="322.995" y="113.002" transform="matrix(-0.7071 0.7071 -0.7071 -0.7071 889.6106 71.5122)" fill="#F2D64A" width="213.999" height="213.998"/>
	
		<rect x="452.994" y="113.002" transform="matrix(-0.7071 0.7071 -0.7071 -0.7071 1111.5332 -20.4102)" fill="#F2D64A" width="213.999" height="213.998"/>
	
		<rect x="132.997" y="113.001" transform="matrix(-0.7071 0.7071 -0.7071 -0.7071 565.2618 205.8604)" fill="#F2D64A" width="213.999" height="213.998"/>
	
		<rect x="382.994" y="113.002" transform="matrix(-0.7071 0.7071 -0.7071 -0.7071 992.0356 29.0873)" fill="#F2D64A" width="213.999" height="213.998"/>
	
		<rect x="262.995" y="113.002" transform="matrix(-0.7071 0.7071 -0.7071 -0.7071 787.1841 113.9386)" fill="#F2D64A" width="213.999" height="213.998"/>
</g>
</svg>
