<?xml version="1.0" encoding="utf-8"?>
<!-- Generator: Adobe Illustrator 16.0.0, SVG Export Plug-In . SVG Version: 6.00 Build 0)  -->
<!DOCTYPE svg PUBLIC "-//W3C//DTD SVG 1.1//EN" "http://www.w3.org/Graphics/SVG/1.1/DTD/svg11.dtd">
<svg version="1.1" id="Layer_1" xmlns="http://www.w3.org/2000/svg" xmlns:xlink="http://www.w3.org/1999/xlink" x="0px" y="0px"
	 width="740px" height="440px" viewBox="0 0 740 440" enable-background="new 0 0 740 440" xml:space="preserve">
<g>
	<circle cx="288.066" cy="220" r="127.5"/>
	<g>
		<g>
			<polygon points="261.793,106.062 273.276,63.119 311.006,106.062 			"/>
			<rect x="273.276" y="63.119" width="26.247" height="42.706"/>
			<path d="M273.276,86.246"/>
			<path d="M299.418,86.141"/>
			<polyline points="311.006,106.062 299.523,63.119 261.793,106.062 			"/>
		</g>
		<g>
			<polygon points="208.345,134.464 196.817,91.532 250.965,109.856 			"/>
			<rect x="205.736" y="82.109" transform="matrix(0.866 -0.5 0.5 0.866 -22.4092 123.2956)" width="26.247" height="42.706"/>
			<path d="M208.381,111.561"/>
			<path d="M230.968,98.398"/>
			<polyline points="250.965,109.856 219.548,78.408 208.345,134.464 			"/>
		</g>
		<g>
			<polygon points="176.258,185.784 144.809,154.368 200.864,143.164 			"/>
			<rect x="156.74" y="132.326" transform="matrix(0.5 -0.866 0.866 0.5 -48.1598 223.9413)" width="26.247" height="42.707"/>
			<path d="M164.837,165.932"/>
			<path d="M177.817,143.239"/>
			<polyline points="200.864,143.164 157.933,131.638 176.258,185.784 			"/>
		</g>
		<g>
			<polygon points="174.13,246.272 131.186,234.79 174.13,197.059 			"/>
			<rect x="131.186" y="208.542" width="42.707" height="26.247"/>
			<path d="M154.313,234.79"/>
			<path d="M154.208,208.647"/>
			<polyline points="174.13,197.059 131.187,208.543 174.13,246.272 			"/>
		</g>
		<g>
			<polygon points="202.531,299.721 159.599,311.249 177.925,257.101 			"/>
			
				<rect x="158.407" y="267.852" transform="matrix(-0.4999 -0.8661 0.8661 -0.4999 6.8169 582.3481)" width="26.247" height="42.708"/>
			<path d="M179.628,299.685"/>
			<path d="M166.466,277.098"/>
			<polyline points="177.925,257.101 146.477,288.518 202.531,299.721 			"/>
		</g>
		<g>
			<polygon points="253.852,331.808 222.435,363.258 211.231,307.2 			"/>
			
				<rect x="208.623" y="316.848" transform="matrix(-0.866 -0.5001 0.5001 -0.866 244.6555 741.9687)" width="26.247" height="42.708"/>
			<path d="M233.999,343.228"/>
			<path d="M211.307,330.249"/>
			<polyline points="211.231,307.2 199.705,350.133 253.852,331.808 			"/>
		</g>
		<g>
			<polygon points="314.34,333.936 302.855,376.881 265.126,333.935 			"/>
			<rect x="276.61" y="334.172" width="26.245" height="42.708"/>
			<path d="M302.855,353.752"/>
			<path d="M276.716,353.858"/>
			<polyline points="265.126,333.935 276.61,376.879 314.34,333.936 			"/>
		</g>
		<g>
			<polygon points="367.787,305.534 379.314,348.468 325.166,330.141 			"/>
			
				<rect x="344.15" y="315.181" transform="matrix(-0.8661 0.4999 -0.4999 -0.8661 834.9384 449.3839)" width="26.246" height="42.708"/>
			<path d="M367.75,328.438"/>
			<path d="M345.166,341.601"/>
			<polyline points="325.166,330.141 356.584,361.589 367.787,305.534 			"/>
		</g>
		<g>
			<polygon points="399.875,254.214 431.324,285.632 375.266,296.835 			"/>
			
				<rect x="393.146" y="264.965" transform="matrix(-0.5001 0.866 -0.866 -0.5001 857.3807 77.6793)" width="26.246" height="42.708"/>
			<path d="M411.293,274.067"/>
			<path d="M398.316,296.759"/>
			<polyline points="375.266,296.835 418.199,308.36 399.875,254.214 			"/>
		</g>
		<g>
			<polygon points="402.002,193.726 444.947,205.21 402.002,242.94 			"/>
			<rect x="402.239" y="205.209" width="42.707" height="26.246"/>
			<path d="M421.818,205.21"/>
			<path d="M421.926,231.35"/>
			<polyline points="402.002,242.94 444.945,231.456 402.002,193.726 			"/>
		</g>
		<g>
			<polygon points="373.602,140.277 416.535,128.75 398.207,182.899 			"/>
			
				<rect x="391.479" y="129.439" transform="matrix(0.4999 0.8661 -0.8661 0.4999 332.9323 -275.0067)" width="26.247" height="42.708"/>
			<path d="M396.504,140.315"/>
			<path d="M409.668,162.899"/>
			<polyline points="398.207,182.899 429.656,151.481 373.602,140.277 			"/>
		</g>
		<g>
			<polygon points="322.281,108.19 353.699,76.741 364.9,132.8 			"/>
			
				<rect x="341.263" y="80.442" transform="matrix(0.866 0.5001 -0.5001 0.866 98.4004 -163.5774)" width="26.246" height="42.708"/>
			<path d="M342.135,96.771"/>
			<path d="M364.826,109.748"/>
			<polyline points="364.9,132.8 376.428,89.866 322.281,108.19 			"/>
		</g>
	</g>
	<circle fill="#FFFFFF" cx="288.066" cy="220" r="43.25"/>
	<circle fill="none" stroke="#FFFFFF" stroke-width="3" stroke-miterlimit="10" cx="288.066" cy="220" r="68"/>
	<g>
		<circle fill="none" stroke="#FFFFFF" stroke-width="3" stroke-miterlimit="10" cx="288.067" cy="164.434" r="3.934"/>
		<circle fill="none" stroke="#FFFFFF" stroke-width="3" stroke-miterlimit="10" cx="232.5" cy="220" r="3.934"/>
		<circle fill="none" stroke="#FFFFFF" stroke-width="3" stroke-miterlimit="10" cx="288.067" cy="275.565" r="3.934"/>
		<circle fill="none" stroke="#FFFFFF" stroke-width="3" stroke-miterlimit="10" cx="343.632" cy="220" r="3.934"/>
	</g>
	<g>
		<g>
			<g>
				<g>
					<polygon fill="#F2D64A" points="461.679,229.694 453.063,197.885 493.236,211.38 					"/>
					
						<rect x="459.695" y="190.863" transform="matrix(0.8649 -0.5019 0.5019 0.8649 -40.3314 263.5328)" fill="#F2D64A" width="19.459" height="31.662"/>
					<path fill="#F2D64A" d="M461.669,212.715"/>
					<path fill="#F2D64A" d="M478.393,202.919"/>
					<polyline fill="#F2D64A" points="493.236,211.38 469.894,188.118 461.679,229.694 					"/>
				</g>
			</g>
			<g>
				<g>
					<polygon fill="#F2D64A" points="444.902,278.801 416.318,262.4 454.267,243.535 					"/>
					
						<rect x="424.384" y="241.23" transform="matrix(0.2566 -0.9665 0.9665 0.2566 74.2861 610.6948)" fill="#F2D64A" width="19.459" height="31.659"/>
					<path fill="#F2D64A" d="M432.888,266.802"/>
					<path fill="#F2D64A" d="M437.787,248.05"/>
					<polyline fill="#F2D64A" points="454.267,243.535 421.311,243.593 444.902,278.801 					"/>
				</g>
			</g>
			<g>
				<g>
					<polygon fill="#F2D64A" points="467.762,325.387 435.953,334.002 449.447,293.83 					"/>
					
						<rect x="435.031" y="301.812" transform="matrix(-0.5021 -0.8648 0.8648 -0.5021 393.3571 861.7615)" fill="#F2D64A" width="19.458" height="31.661"/>
					<path fill="#F2D64A" d="M450.781,325.397"/>
					<path fill="#F2D64A" d="M440.985,308.674"/>
					<polyline fill="#F2D64A" points="449.447,293.83 426.184,317.174 467.762,325.387 					"/>
				</g>
			</g>
			<g>
				<g>
					<polygon fill="#F2D64A" points="516.868,342.164 500.467,370.748 481.603,332.801 					"/>
					
						<rect x="485.397" y="337.123" transform="matrix(-0.9665 -0.2566 0.2566 -0.9665 883.1252 821.1222)" fill="#F2D64A" width="19.458" height="31.659"/>
					<path fill="#F2D64A" d="M504.869,354.179"/>
					<path fill="#F2D64A" d="M486.115,349.279"/>
					<polyline fill="#F2D64A" points="481.603,332.801 481.66,365.756 516.868,342.164 					"/>
				</g>
			</g>
			<g>
				<g>
					<polygon fill="#F2D64A" points="563.454,319.304 572.069,351.114 531.896,337.619 					"/>
					
						<rect x="545.98" y="326.475" transform="matrix(-0.8648 0.502 -0.502 -0.8648 1208.1621 359.3634)" fill="#F2D64A" width="19.458" height="31.662"/>
					<path fill="#F2D64A" d="M563.465,336.284"/>
					<path fill="#F2D64A" d="M546.74,346.081"/>
					<polyline fill="#F2D64A" points="531.896,337.619 555.241,360.883 563.454,319.304 					"/>
				</g>
			</g>
			<g>
				<g>
					<polygon fill="#F2D64A" points="580.23,270.197 608.814,286.6 570.867,305.464 					"/>
					
						<rect x="581.291" y="276.111" transform="matrix(-0.2565 0.9665 -0.9665 -0.2565 1024.7982 -204.4167)" fill="#F2D64A" width="19.458" height="31.658"/>
					<path fill="#F2D64A" d="M592.246,282.197"/>
					<path fill="#F2D64A" d="M587.347,300.95"/>
					<polyline fill="#F2D64A" points="570.867,305.464 603.823,305.406 580.23,270.197 					"/>
				</g>
			</g>
			<g>
				<g>
					<polygon fill="#F2D64A" points="557.37,223.612 589.181,214.998 575.686,255.17 					"/>
					
						<rect x="570.644" y="215.527" transform="matrix(0.502 0.8648 -0.8648 0.502 489.0947 -386.7259)" fill="#F2D64A" width="19.458" height="31.661"/>
					<path fill="#F2D64A" d="M574.35,223.601"/>
					<path fill="#F2D64A" d="M584.148,240.325"/>
					<polyline fill="#F2D64A" points="575.686,255.17 598.949,231.826 557.37,223.612 					"/>
				</g>
			</g>
			<g>
				<g>
					<polygon fill="#F2D64A" points="508.265,206.836 524.666,178.251 543.53,216.199 					"/>
					
						<rect x="520.278" y="180.217" transform="matrix(0.9665 0.2565 -0.2565 0.9665 68.0191 -129.3897)" fill="#F2D64A" width="19.459" height="31.66"/>
					<path fill="#F2D64A" d="M520.263,194.821"/>
					<path fill="#F2D64A" d="M539.018,199.719"/>
					<polyline fill="#F2D64A" points="543.53,216.199 543.474,183.243 508.265,206.836 					"/>
				</g>
			</g>
		</g>
		<g>
			<circle fill="#F2D64A" cx="512.566" cy="274.5" r="69.796"/>
			<circle fill="#FFFFFF" cx="512.566" cy="274.5" r="23.677"/>
			<circle fill="none" stroke="#FFFFFF" stroke-width="3" stroke-miterlimit="10" cx="512.565" cy="274.5" r="37.225"/>
			<g>
				<path fill="none" stroke="#FFFFFF" stroke-width="3" stroke-miterlimit="10" d="M499.162,247.108
					c0.596,1.029,0.245,2.348-0.783,2.944c-1.029,0.597-2.347,0.248-2.941-0.78c-0.6-1.028-0.249-2.348,0.779-2.943
					C497.246,245.73,498.565,246.081,499.162,247.108z"/>
				<circle fill="none" stroke="#FFFFFF" stroke-width="3" stroke-miterlimit="10" cx="486.256" cy="289.769" r="2.154"/>
				<path fill="none" stroke="#FFFFFF" stroke-width="3" stroke-miterlimit="10" d="M525.97,301.891
					c-0.595-1.029-0.245-2.347,0.783-2.942c1.028-0.598,2.347-0.248,2.943,0.779c0.599,1.031,0.246,2.349-0.78,2.943
					C527.886,303.271,526.568,302.92,525.97,301.891z"/>
				<circle fill="none" stroke="#FFFFFF" stroke-width="3" stroke-miterlimit="10" cx="538.875" cy="259.233" r="2.153"/>
			</g>
		</g>
	</g>
</g>
</svg>
