<?xml version="1.0" encoding="utf-8"?>
<!-- Generator: Adobe Illustrator 16.0.0, SVG Export Plug-In . SVG Version: 6.00 Build 0)  -->
<!DOCTYPE svg PUBLIC "-//W3C//DTD SVG 1.1//EN" "http://www.w3.org/Graphics/SVG/1.1/DTD/svg11.dtd">
<svg version="1.1" xmlns="http://www.w3.org/2000/svg" xmlns:xlink="http://www.w3.org/1999/xlink" x="0px" y="0px" width="740px"
	 height="440px" viewBox="0 0 740 440" enable-background="new 0 0 740 440" xml:space="preserve">
<g id="Layer_2">
</g>
<g id="Layer_1">
	<g>
		
			<ellipse fill="none" stroke="#F2D64A" stroke-width="2" stroke-miterlimit="10" cx="370.047" cy="24.333" rx="12.917" ry="12.333"/>
		<g>
			<ellipse fill="#F2D64A" cx="370.047" cy="249.5" rx="125.5" ry="168.252"/>
			<ellipse fill="#FFFFFF" cx="370.047" cy="249.5" rx="105.898" ry="141.973"/>
			<polygon fill="#F2D64A" points="471.714,176.5 464.381,157.166 419.047,197.833 429.908,214.636 362.153,271.852 442.381,216.5 
				434.409,197.058 			"/>
		</g>
		<g>
			<ellipse fill="#F2D64A" cx="361.047" cy="79.833" rx="10" ry="9.333"/>
			<ellipse fill="#F2D64A" cx="379.047" cy="79.833" rx="10" ry="9.333"/>
		</g>
		<ellipse fill="none" stroke="#F2D64A" stroke-width="5" stroke-miterlimit="10" cx="370.047" cy="76.833" rx="27" ry="23"/>
		<g>
			<defs>
				<rect id="SVGID_1_" x="359.546" y="55.25" width="22.5" height="23.5"/>
			</defs>
			<clipPath id="SVGID_2_">
				<use xlink:href="#SVGID_1_"  overflow="visible"/>
			</clipPath>
			<g clip-path="url(#SVGID_2_)">
				<path fill="#F2D64A" d="M366.912,46.113c2.935,20.606,3.334,20.606,6.269,0c-2.934,20.606-2.934,23.417,0,44.023
					c-2.934-20.606-3.334-20.606-6.269,0C369.847,69.529,369.847,66.719,366.912,46.113z"/>
				<path fill="none" stroke="#F2D64A" stroke-width="3" stroke-miterlimit="10" d="M366.912,46.113
					c2.935,20.606,3.334,20.606,6.269,0c-2.934,20.606-2.934,23.417,0,44.023c-2.934-20.606-3.334-20.606-6.269,0
					C369.847,69.529,369.847,66.719,366.912,46.113z"/>
			</g>
		</g>
		<g>
			<path fill="#F2D64A" d="M430.381,103.833c0,0-0.59,0.276-1.696,0.795c-0.541,0.279-1.263,0.508-2.143,0.795
				c-0.881,0.337-1.907,0.526-3.083,0.755c-2.343,0.38-5.346,0.6-8.775-0.045c-0.843-0.193-1.739-0.358-2.64-0.615
				c-0.879-0.3-1.828-0.555-2.748-0.945c-0.907-0.411-1.825-0.894-2.598-1.611c-0.809-0.664-1.677-1.286-2.46-2.05
				c-0.398-0.372-0.817-0.732-1.208-1.128c-0.373-0.414-0.75-0.831-1.131-1.253c-0.795-0.815-1.413-1.804-2.127-2.739
				c-1.274-1.973-2.459-4.126-3.242-6.5l-0.307-0.888l-0.153-0.447l-0.038-0.112c0.034,0.134-0.068-0.246-0.062-0.225l-0.012-0.051
				l-0.048-0.203c-0.129-0.541-0.258-1.084-0.389-1.632c-0.116-0.652-0.212-1.397-0.306-2.099c-0.116-0.731-0.077-1.359-0.116-2.051
				c-0.04-2.707,0.392-5.48,1.322-8.132c1.837-5.299,5.747-10.115,10.991-12.896c0.65-0.348,1.333-0.639,2.003-0.954
				c0.675-0.305,1.389-0.51,2.086-0.763l0.264-0.09l0.132-0.045l0.065-0.022c-0.13,0.033,0.252-0.07,0.233-0.063l0.462-0.11
				l0.925-0.22c0.699-0.137,1.645-0.267,2.433-0.343c3.096-0.218,6.248,0.311,9.112,1.516c2.85,1.24,5.399,3.152,7.387,5.535
				c1.965,2.373,3.338,5.331,3.967,8.186c0.13,0.683,0.311,1.756,0.318,2.494c0.012,0.399,0.032,0.797,0.027,1.195l-0.078,1.19
				c-0.174,1.574-0.519,3.131-1.13,4.577c-1.184,2.9-3.19,5.412-5.692,7.165c-1.247,0.874-2.601,1.59-4.017,2.062l-0.529,0.182
				l-0.265,0.089l-0.389,0.099l-0.866,0.203c-0.434,0.072-0.87,0.135-1.305,0.188c-0.43,0.049-0.788,0.042-1.184,0.059
				c-3.1,0.027-6.109-1.006-8.435-2.804c-2.36-1.763-4.021-4.285-4.826-6.919l-0.041-0.123c0.033,0.132-0.07-0.251-0.062-0.228
				l-0.012-0.047l-0.044-0.188l-0.089-0.374l-0.045-0.187l-0.051-0.307l-0.091-0.62c-0.067-0.436-0.063-0.769-0.077-1.133
				c-0.021-0.36,0.001-0.717,0.027-1.072c0.103-1.42,0.466-2.789,1.033-4.028c0.564-1.243,1.342-2.347,2.23-3.31
				c0.857-0.995,1.944-1.768,3.125-2.186c0.587-0.217,1.17-0.389,1.755-0.501l0.217-0.047l0.421-0.097l0.08-0.002l0.319-0.009
				l0.632-0.018l0.314-0.009l0.521,0.022c0.346,0.02,0.688,0.05,1.02,0.088c0.708,0.049,1.178,0.274,1.716,0.44
				c2.067,0.768,3.603,2.163,4.509,3.673c0.203,0.396,0.39,0.784,0.562,1.158c0.179,0.371,0.236,0.785,0.344,1.154
				c0.045,0.187,0.089,0.372,0.133,0.555l0.063,0.283l0.001,0.114l0.003,0.225c-0.006,0.323,0.026,0.533-0.01,0.928
				c-0.263,3.126-2.112,4.389-3.22,4.974c-0.301,0.13-0.557,0.245-0.781,0.326c-0.236,0.046-0.436,0.084-0.596,0.116
				c-0.31,0.057-0.47,0.086-0.47,0.086s0.136-0.09,0.399-0.265c0.126-0.085,0.282-0.19,0.469-0.315
				c0.156-0.156,0.338-0.336,0.542-0.541c0.388-0.409,0.747-1.01,0.993-1.718c0.059-0.178,0.074-0.381,0.116-0.571
				c0.043-0.19,0.074-0.386,0.058-0.596c-0.009-0.202,0.014-0.417-0.012-0.606c-0.05-0.179-0.092-0.349-0.12-0.515
				c0.003-0.061-0.065-0.221-0.112-0.353c-0.051-0.136-0.103-0.274-0.154-0.414l-0.078-0.211l-0.04-0.106
				c-0.01-0.042,0.061,0.268,0.023,0.128l-0.013-0.019l-0.026-0.037l-0.211-0.293c-0.151-0.188-0.239-0.407-0.429-0.568
				c-0.173-0.16-0.35-0.324-0.529-0.491c-0.783-0.572-1.727-0.95-2.686-0.927c-0.226,0.027-0.515-0.023-0.617,0.082
				c-0.068,0.032-0.132,0.055-0.193,0.068c-0.03,0.006-0.061,0.01-0.091,0.011l-0.293,0.103l-0.597,0.209l-0.301,0.106l-0.075,0.027
				c0.619-0.145,0.159-0.032,0.292-0.061l-0.021,0.015l-0.084,0.058c-0.229,0.138-0.438,0.303-0.633,0.475
				c-0.369,0.382-0.751,0.666-1.177,0.978c-0.403,0.336-0.699,0.806-0.929,1.303c-0.228,0.5-0.372,1.049-0.412,1.614
				c-0.012,0.141-0.027,0.283-0.012,0.426c0.008,0.137,0,0.311,0.021,0.376c0.006,0.044,0.01,0.089,0.011,0.135l-0.001,0.072
				l0.045,0.187l0.089,0.374l0.044,0.188l0.012,0.047c0.014,0.055-0.078-0.298-0.034-0.135l0.022,0.06
				c0.408,1.302,1.197,2.521,2.364,3.387c1.141,0.894,2.63,1.389,4.135,1.378c0.179-0.013,0.4-0.001,0.546-0.023
				c0.139-0.023,0.277-0.037,0.421-0.042l0.837-0.196l0.106-0.025l0.054-0.013c0.17-0.045-0.171,0.047-0.123,0.032l0.15-0.055
				l0.303-0.107c0.818-0.263,1.579-0.678,2.289-1.172c1.421-0.992,2.568-2.431,3.248-4.089c0.357-0.825,0.536-1.716,0.645-2.608
				l0.047-0.676l-0.02-0.678c0.005-0.244-0.026-0.426-0.052-0.603l-0.029-0.275c-0.004-0.084-0.01-0.178-0.058-0.354l-0.218-0.917
				l-0.027-0.115c0.016,0.058-0.054-0.212,0.031,0.116l-0.016-0.043l-0.062-0.174l-0.124-0.349
				c-0.084-0.232-0.152-0.471-0.246-0.699l-0.314-0.67c-0.41-0.9-0.978-1.716-1.582-2.5c-1.276-1.518-2.911-2.747-4.74-3.551
				c-1.845-0.766-3.854-1.103-5.832-0.971c-0.237,0.014-0.43,0.059-0.646,0.079l-0.317,0.034c-0.104,0.009-0.201,0.013-0.375,0.061
				l-0.925,0.22l-0.462,0.11c-0.059,0.014,0.287-0.076,0.119-0.03l-0.046,0.017l-0.093,0.033l-0.185,0.065
				c-0.488,0.187-0.999,0.316-1.471,0.536c-0.466,0.23-0.948,0.425-1.404,0.668c-3.672,1.938-6.42,5.331-7.71,9.057
				c-0.652,1.863-0.953,3.806-0.927,5.7c0.033,0.457-0.007,0.983,0.073,1.376c0.054,0.424,0.107,0.845,0.16,1.264
				c0.13,0.547,0.26,1.091,0.388,1.632l0.049,0.203l0.012,0.051c0.014,0.055-0.076-0.292-0.031-0.125l0.03,0.084l0.119,0.337
				l0.234,0.671c0.583,1.802,1.49,3.411,2.438,4.903c0.552,0.693,0.993,1.455,1.604,2.059c0.286,0.319,0.568,0.634,0.849,0.947
				c0.295,0.298,0.615,0.565,0.915,0.847c0.581,0.586,1.24,1.056,1.896,1.49c0.321,0.229,0.662,0.416,0.993,0.609
				c0.328,0.198,0.625,0.437,0.913,0.689c0.575,0.508,1.206,0.902,1.796,1.356c0.61,0.411,1.243,0.745,1.85,1.117
				c2.489,1.317,4.954,2.055,7.062,2.469c1.057,0.162,2.027,0.33,2.858,0.357c0.841,0.061,1.588,0.126,2.199,0.07
				C429.729,103.852,430.381,103.833,430.381,103.833z"/>
		</g>
		<g>
			<path fill="#F2D64A" d="M310.529,103.833c0,0,0.651,0.019,1.873,0.054c0.612,0.056,1.359-0.009,2.2-0.07
				c0.832-0.028,1.801-0.196,2.859-0.357c2.107-0.414,4.571-1.152,7.061-2.469c0.606-0.372,1.24-0.706,1.85-1.117
				c0.589-0.455,1.221-0.849,1.795-1.356c0.289-0.252,0.586-0.491,0.914-0.689c0.331-0.193,0.671-0.381,0.992-0.609
				c0.657-0.435,1.316-0.904,1.897-1.49c0.299-0.282,0.62-0.548,0.915-0.847c0.28-0.313,0.563-0.628,0.848-0.947
				c0.611-0.604,1.053-1.366,1.604-2.059c0.949-1.492,1.856-3.101,2.439-4.903l0.234-0.671l0.119-0.337l0.03-0.084
				c0.045-0.167-0.045,0.181-0.031,0.125l0.012-0.051l0.048-0.203c0.128-0.541,0.258-1.084,0.388-1.632
				c0.053-0.419,0.106-0.84,0.16-1.264c0.081-0.394,0.041-0.92,0.074-1.376c0.026-1.894-0.274-3.836-0.927-5.7
				c-1.291-3.727-4.039-7.119-7.709-9.057c-0.456-0.244-0.939-0.438-1.405-0.668c-0.472-0.219-0.982-0.349-1.47-0.536l-0.185-0.065
				l-0.092-0.033l-0.046-0.017c-0.167-0.046,0.178,0.044,0.12,0.03l-0.462-0.11l-0.925-0.22c-0.173-0.048-0.271-0.051-0.375-0.061
				l-0.317-0.034c-0.217-0.021-0.409-0.065-0.646-0.079c-1.978-0.132-3.988,0.205-5.833,0.971c-1.829,0.804-3.464,2.034-4.74,3.551
				c-0.605,0.783-1.172,1.599-1.583,2.5l-0.315,0.67c-0.093,0.228-0.161,0.467-0.246,0.699l-0.123,0.349l-0.062,0.174l-0.016,0.043
				c0.085-0.328,0.016-0.058,0.031-0.116l-0.027,0.115l-0.218,0.917c-0.048,0.176-0.054,0.27-0.058,0.354l-0.028,0.275
				c-0.025,0.177-0.057,0.359-0.052,0.603l-0.02,0.678l0.047,0.676c0.108,0.892,0.287,1.784,0.644,2.608
				c0.679,1.659,1.828,3.098,3.248,4.089c0.71,0.494,1.471,0.909,2.289,1.172l0.303,0.107l0.151,0.055
				c0.047,0.015-0.293-0.077-0.123-0.032l0.054,0.013l0.106,0.025l0.837,0.196c0.143,0.004,0.282,0.018,0.421,0.042
				c0.145,0.021,0.367,0.01,0.545,0.023c1.505,0.011,2.995-0.485,4.135-1.378c1.167-0.867,1.956-2.085,2.364-3.387l0.022-0.06
				c0.044-0.163-0.048,0.19-0.034,0.135l0.011-0.047l0.044-0.188l0.089-0.374l0.044-0.187v-0.072c0-0.046,0.004-0.091,0.01-0.135
				c0.022-0.065,0.014-0.239,0.021-0.376c0.016-0.143,0-0.285-0.011-0.426c-0.041-0.565-0.186-1.114-0.413-1.614
				c-0.229-0.497-0.524-0.967-0.928-1.303c-0.426-0.312-0.808-0.596-1.176-0.978c-0.196-0.172-0.404-0.337-0.633-0.475l-0.084-0.058
				l-0.021-0.015c0.133,0.029-0.327-0.084,0.292,0.061l-0.076-0.027l-0.301-0.106l-0.596-0.209l-0.293-0.103
				c-0.031-0.001-0.061-0.005-0.092-0.011c-0.062-0.013-0.124-0.036-0.192-0.068c-0.103-0.105-0.393-0.055-0.617-0.082
				c-0.959-0.023-1.902,0.355-2.686,0.927c-0.18,0.167-0.356,0.331-0.529,0.491c-0.189,0.161-0.278,0.38-0.43,0.568l-0.21,0.293
				l-0.027,0.037l-0.013,0.019c-0.036,0.14,0.034-0.171,0.023-0.128l-0.04,0.106l-0.078,0.211c-0.052,0.14-0.104,0.278-0.154,0.414
				c-0.047,0.132-0.116,0.292-0.113,0.353c-0.028,0.167-0.07,0.336-0.12,0.515c-0.026,0.19-0.004,0.404-0.012,0.606
				c-0.017,0.21,0.015,0.405,0.058,0.596c0.041,0.19,0.058,0.393,0.116,0.571c0.246,0.708,0.604,1.309,0.992,1.718
				c0.205,0.204,0.386,0.385,0.542,0.541c0.186,0.125,0.343,0.23,0.469,0.315c0.263,0.174,0.399,0.265,0.399,0.265
				s-0.16-0.029-0.469-0.086c-0.161-0.031-0.36-0.07-0.597-0.116c-0.224-0.081-0.48-0.196-0.781-0.326
				c-1.108-0.585-2.957-1.847-3.22-4.974c-0.036-0.395-0.004-0.605-0.01-0.928l0.003-0.225l0.001-0.114l0.064-0.283
				c0.043-0.183,0.088-0.368,0.133-0.555c0.107-0.37,0.165-0.784,0.343-1.154c0.173-0.374,0.36-0.761,0.562-1.158
				c0.907-1.51,2.442-2.906,4.509-3.673c0.538-0.166,1.008-0.391,1.715-0.44c0.333-0.039,0.674-0.068,1.02-0.088l0.521-0.022
				l0.314,0.009l0.631,0.018l0.319,0.009l0.08,0.002l0.421,0.097l0.217,0.047c0.585,0.113,1.168,0.285,1.755,0.501
				c1.18,0.418,2.268,1.191,3.125,2.186c0.888,0.963,1.666,2.067,2.23,3.31c0.567,1.239,0.93,2.608,1.032,4.028
				c0.027,0.355,0.048,0.712,0.028,1.072c-0.014,0.365-0.011,0.697-0.078,1.133l-0.09,0.62l-0.052,0.307l-0.044,0.187l-0.089,0.374
				l-0.044,0.188l-0.011,0.047c0.007-0.023-0.096,0.36-0.062,0.228l-0.041,0.123c-0.807,2.634-2.466,5.156-4.827,6.919
				c-2.325,1.798-5.335,2.832-8.435,2.804c-0.396-0.017-0.754-0.01-1.184-0.059c-0.435-0.053-0.871-0.116-1.305-0.188l-0.866-0.203
				l-0.389-0.099l-0.264-0.089l-0.529-0.182c-1.416-0.472-2.77-1.188-4.017-2.062c-2.501-1.753-4.509-4.265-5.693-7.165
				c-0.611-1.445-0.956-3.002-1.13-4.577l-0.078-1.19c-0.005-0.397,0.016-0.796,0.027-1.195c0.008-0.738,0.189-1.812,0.319-2.494
				c0.629-2.854,2.002-5.813,3.967-8.186c1.987-2.382,4.537-4.294,7.387-5.535c2.864-1.205,6.017-1.734,9.113-1.516
				c0.788,0.076,1.732,0.206,2.432,0.343l0.925,0.22l0.462,0.11c-0.019-0.006,0.364,0.096,0.233,0.063l0.066,0.022l0.132,0.045
				l0.263,0.09c0.697,0.253,1.412,0.458,2.086,0.763c0.67,0.315,1.352,0.606,2.002,0.954c5.245,2.781,9.155,7.597,10.991,12.896
				c0.931,2.651,1.363,5.425,1.323,8.132c-0.04,0.691-0.001,1.319-0.117,2.051c-0.093,0.702-0.19,1.447-0.306,2.099
				c-0.13,0.547-0.259,1.091-0.388,1.632l-0.048,0.203l-0.012,0.051c0.007-0.021-0.095,0.358-0.061,0.225l-0.039,0.112l-0.153,0.447
				l-0.307,0.888c-0.784,2.374-1.968,4.527-3.243,6.5c-0.714,0.935-1.332,1.924-2.127,2.739c-0.38,0.422-0.757,0.839-1.131,1.253
				c-0.39,0.396-0.809,0.756-1.208,1.128c-0.783,0.764-1.651,1.386-2.46,2.05c-0.771,0.717-1.69,1.2-2.597,1.611
				c-0.92,0.39-1.87,0.645-2.749,0.945c-0.9,0.256-1.797,0.421-2.639,0.615c-3.431,0.645-6.433,0.425-8.776,0.045
				c-1.175-0.229-2.201-0.418-3.083-0.755c-0.88-0.288-1.601-0.516-2.142-0.795C311.119,104.109,310.529,103.833,310.529,103.833z"
				/>
		</g>
		<ellipse fill="#F2D64A" cx="370.047" cy="49.166" rx="3.167" ry="4.75"/>
		<ellipse fill="#F2D64A" cx="360.046" cy="51.666" rx="2.167" ry="3.25"/>
		<ellipse fill="#F2D64A" cx="380.047" cy="51.666" rx="2.167" ry="3.25"/>
		<g>
			<path fill="#F2D64A" d="M383.561,71.666c0,0-0.157,0.085-0.452,0.246c-0.146,0.085-0.327,0.179-0.564,0.269
				c-0.232,0.101-0.51,0.21-0.825,0.284c-0.628,0.19-1.437,0.31-2.386,0.269c-0.477-0.014-0.983-0.086-1.517-0.202
				c-0.534-0.128-1.009-0.467-1.522-0.756c-1.004-0.629-1.966-1.529-2.705-2.675c-0.197-0.278-0.338-0.595-0.511-0.898
				c-0.078-0.156-0.139-0.321-0.209-0.483l-0.102-0.245l-0.05-0.123l-0.013-0.031l-0.037-0.126l-0.015-0.057
				c-0.076-0.307-0.153-0.618-0.23-0.931c-0.048-0.141-0.066-0.337-0.077-0.546l-0.034-0.611c-0.028-1.597,0.443-3.125,1.386-4.444
				c0.967-1.295,2.38-2.232,3.976-2.654c0.178-0.039,0.322-0.092,0.528-0.12l0.685-0.046c0.476-0.05,0.879,0.034,1.294,0.099
				c0.828,0.143,1.601,0.5,2.292,0.955c1.359,0.927,2.322,2.483,2.455,4.007c0.041,0.457,0.056,0.915-0.031,1.296
				c-0.037,0.406-0.178,0.782-0.319,1.152c-0.128,0.375-0.374,0.691-0.563,1.026c-0.258,0.286-0.489,0.599-0.784,0.833
				c-1.147,0.967-2.69,1.406-4.08,0.998c-0.324-0.118-0.652-0.21-0.935-0.387c-0.147-0.076-0.291-0.157-0.428-0.244
				c-0.122-0.107-0.232-0.227-0.335-0.347c-0.417-0.475-0.665-1.023-0.807-1.534l-0.079-0.258l-0.013-0.158
				c-0.009-0.104-0.018-0.207-0.025-0.308c-0.007-0.239,0.012-0.543,0.05-0.771c0.109-0.447,0.287-0.814,0.492-1.106
				c0.405-0.6,0.939-0.808,1.237-0.952c0.331-0.085,0.508-0.13,0.508-0.13s-0.14,0.105-0.402,0.304
				c-0.218,0.238-0.54,0.586-0.667,1.118c-0.066,0.26-0.082,0.549-0.047,0.84c0.036,0.121,0.072,0.248,0.11,0.378l0.122,0.284
				l0.062,0.146c-0.041-0.14-0.008-0.035-0.017-0.064l0.005,0.006l0.011,0.013l0.02,0.025l0.039,0.05
				c0.193,0.271,0.433,0.518,0.736,0.676c0.278,0.175,0.546,0.398,0.901,0.494c0.648,0.208,1.552-0.006,2.239-0.59
				c0.717-0.527,1.085-1.632,1.029-2.448c-0.078-1.108-0.726-2.075-1.628-2.707c-0.463-0.296-0.973-0.542-1.524-0.632
				c-0.274-0.042-0.561-0.105-0.789-0.068c-0.121,0.004-0.242,0.004-0.365,0c-0.141,0.012-0.332,0.076-0.495,0.111
				c-1.104,0.295-2.159,0.971-2.849,1.902c-0.679,0.929-1.012,2.126-0.997,3.147l0.007,0.37c-0.006,0.118-0.007,0.245,0.048,0.414
				c0.078,0.313,0.155,0.624,0.231,0.931c0.096,0.226,0.189,0.45,0.282,0.671c0.137,0.231,0.239,0.48,0.395,0.692
				c0.57,0.881,1.31,1.575,2.085,2.061c0.377,0.271,0.813,0.373,1.174,0.591c0.363,0.218,0.731,0.407,1.097,0.542
				c0.729,0.27,1.428,0.437,2.018,0.478c0.59,0.051,1.061,0.062,1.403,0.021C383.382,71.682,383.561,71.666,383.561,71.666z"/>
		</g>
		<g>
			<path fill="#F2D64A" d="M356.693,71.666c0,0,0.178,0.016,0.513,0.045c0.343,0.042,0.813,0.03,1.403-0.021
				c0.589-0.041,1.289-0.208,2.017-0.478c0.366-0.134,0.734-0.324,1.098-0.542c0.36-0.218,0.796-0.321,1.173-0.591
				c0.775-0.486,1.516-1.18,2.085-2.061c0.155-0.212,0.257-0.461,0.395-0.692c0.093-0.221,0.187-0.445,0.282-0.671
				c0.077-0.307,0.154-0.618,0.231-0.931c0.055-0.169,0.055-0.296,0.048-0.414l0.007-0.37c0.015-1.021-0.318-2.218-0.998-3.147
				c-0.689-0.931-1.745-1.607-2.848-1.902c-0.164-0.035-0.355-0.1-0.496-0.111c-0.123,0.004-0.244,0.005-0.365,0
				c-0.229-0.038-0.514,0.026-0.79,0.068c-0.551,0.089-1.062,0.335-1.524,0.632c-0.902,0.632-1.55,1.599-1.627,2.707
				c-0.056,0.816,0.312,1.921,1.029,2.448c0.688,0.584,1.591,0.798,2.239,0.59c0.355-0.095,0.623-0.318,0.901-0.494
				c0.304-0.158,0.543-0.405,0.737-0.676l0.039-0.05l0.02-0.025l0.01-0.013l0.005-0.006c-0.008,0.029,0.025-0.075-0.017,0.064
				l0.062-0.146l0.122-0.284c0.038-0.131,0.075-0.257,0.11-0.378c0.036-0.292,0.02-0.58-0.046-0.84
				c-0.128-0.532-0.45-0.88-0.667-1.118c-0.263-0.198-0.403-0.304-0.403-0.304s0.176,0.045,0.507,0.13
				c0.299,0.144,0.833,0.352,1.238,0.952c0.206,0.292,0.382,0.659,0.492,1.106c0.039,0.227,0.058,0.531,0.051,0.771
				c-0.008,0.101-0.017,0.204-0.025,0.308l-0.013,0.158l-0.079,0.258c-0.142,0.511-0.39,1.059-0.807,1.534
				c-0.103,0.121-0.213,0.24-0.335,0.347c-0.137,0.086-0.28,0.168-0.428,0.244c-0.282,0.177-0.611,0.269-0.935,0.387
				c-1.39,0.408-2.933-0.031-4.08-0.998c-0.295-0.234-0.527-0.547-0.785-0.833c-0.19-0.335-0.436-0.651-0.564-1.026
				c-0.141-0.371-0.281-0.746-0.319-1.152c-0.086-0.381-0.071-0.839-0.03-1.296c0.132-1.524,1.095-3.081,2.455-4.007
				c0.691-0.455,1.463-0.812,2.292-0.955c0.415-0.065,0.819-0.149,1.293-0.099l0.685,0.046c0.207,0.028,0.351,0.081,0.529,0.12
				c1.595,0.422,3.008,1.359,3.975,2.654c0.943,1.319,1.415,2.847,1.387,4.444l-0.035,0.611c-0.01,0.209-0.029,0.406-0.076,0.546
				c-0.078,0.313-0.155,0.624-0.231,0.931l-0.014,0.057l-0.037,0.126l-0.013,0.031l-0.051,0.123l-0.102,0.245
				c-0.07,0.162-0.13,0.327-0.209,0.483c-0.172,0.303-0.312,0.621-0.51,0.898c-0.739,1.146-1.701,2.045-2.706,2.675
				c-0.513,0.289-0.988,0.628-1.522,0.756c-0.534,0.116-1.041,0.188-1.517,0.202c-0.949,0.042-1.758-0.078-2.386-0.269
				c-0.314-0.074-0.592-0.183-0.825-0.284c-0.237-0.09-0.419-0.184-0.564-0.269C356.85,71.751,356.693,71.666,356.693,71.666z"/>
		</g>
		<g>
			<path fill="#F2D64A" d="M291.554,147.451c0,0-0.799-0.036-2.28-0.153c-0.37-0.03-0.783-0.064-1.238-0.102
				c-0.455-0.071-0.957-0.175-1.509-0.279c-0.551-0.109-1.156-0.221-1.802-0.367c-0.653-0.138-1.271-0.383-1.977-0.597
				c-2.818-0.833-6.108-2.423-9.579-4.937c-1.746-1.251-3.444-2.815-5.141-4.61c-0.81-0.924-1.523-1.977-1.971-3.187
				c-0.245-0.594-0.511-1.184-0.799-1.771l-0.431-0.888l-0.36-0.93c-2.003-4.947-3.14-10.772-2.811-16.906
				c0-0.769,0.101-1.534,0.205-2.304c0.103-0.77,0.206-1.544,0.309-2.324c0.133-0.773,0.34-1.537,0.514-2.312l0.276-1.162
				l0.141-0.583l0.018-0.073l0.104-0.331l0.042-0.123l0.084-0.245c0.226-0.655,0.453-1.312,0.681-1.974l0.087-0.25l0.137-0.314
				l0.278-0.628l0.571-1.257c0.197-0.407,0.383-0.862,0.599-1.228l0.649-1.109c0.442-0.736,0.854-1.497,1.389-2.18
				c3.926-5.727,9.972-10.177,16.878-12.418c3.463-1.104,7.15-1.593,10.825-1.482l1.38,0.046c0.46,0.021,0.914,0.103,1.372,0.154
				c0.909,0.142,1.839,0.187,2.728,0.426l1.344,0.314l0.672,0.161l0.335,0.081l0.167,0.041c0.146,0.044-0.208-0.07,0.349,0.105
				l0.068,0.023c0.747,0.265,1.4,0.466,2.226,0.784c0.952,0.424,1.981,0.855,2.845,1.333c0.822,0.499,1.684,0.94,2.458,1.512
				c1.575,1.104,3.06,2.342,4.357,3.751c2.625,2.791,4.635,6.12,5.886,9.69c1.256,3.568,1.747,7.382,1.45,11.089
				c-0.113,0.92-0.228,1.84-0.364,2.751l-0.309,1.342l-0.159,0.668l-0.081,0.333l-0.041,0.167l-0.021,0.083
				c-0.044,0.144,0.07-0.205-0.105,0.344l-0.356,1.034l-0.178,0.516c-0.042,0.145-0.192,0.464-0.286,0.687l-0.665,1.459
				c-0.227,0.502-0.472,0.85-0.711,1.278c-0.932,1.657-2.145,3.115-3.418,4.47c-1.342,1.286-2.757,2.485-4.332,3.405
				c-1.538,0.979-3.21,1.68-4.888,2.271c-1.705,0.511-3.433,0.901-5.17,1.018l-1.297,0.085c-0.431,0.008-0.862-0.013-1.291-0.022
				c-0.86-0.001-1.704-0.104-2.54-0.224c-0.843-0.084-1.648-0.307-2.455-0.493l-0.602-0.147l-0.496-0.161l-0.222-0.076l-0.883-0.305
				c-0.414-0.167-0.896-0.381-1.333-0.582l-0.665-0.313c-0.207-0.106-0.377-0.213-0.566-0.32l-1.094-0.651
				c-0.35-0.236-0.687-0.489-1.025-0.736c-0.691-0.476-1.28-1.065-1.894-1.609c-0.563-0.593-1.139-1.172-1.624-1.811
				c-1.015-1.25-1.784-2.623-2.503-3.983c-0.373-0.674-0.667-1.385-0.912-2.098c-0.178-0.735-0.318-1.473-0.338-2.212
				c-0.152-2.947,0.376-5.671,1.32-7.94c0.894-2.195,2.384-4.376,3.994-5.662c1.613-1.357,3.313-2.178,4.863-2.641
				c1.551-0.469,2.966-0.585,4.154-0.486c0.589,0.009,1.131,0.139,1.608,0.204c0.479,0.113,0.903,0.228,1.273,0.336
				c0.738,0.26,1.263,0.5,1.604,0.699c0.339,0.182,0.514,0.275,0.514,0.275s-0.198,0.006-0.583,0.018
				c-0.375-0.009-0.94,0.067-1.632,0.159c-1.376,0.228-3.351,0.939-5.022,2.488c-0.829,0.772-1.557,1.763-2.022,2.892
				c-0.48,1.185-0.616,2.214-0.556,3.663c0.074,1.361,0.431,2.7,1.088,3.873c0.375,0.575,0.575,1.153,0.737,1.81
				c0.111,0.314,0.233,0.633,0.435,0.911c0.162,0.303,0.378,0.571,0.588,0.849c0.203,0.284,0.468,0.519,0.699,0.787
				c0.279,0.217,0.51,0.499,0.819,0.687l0.436,0.322l0.474,0.274c0.075,0.044,0.162,0.105,0.228,0.137l0.171,0.073
				c0.123,0.055,0.196,0.11,0.352,0.189l0.883,0.304l0.222,0.077l0.111,0.039l0.056,0.019c0.256,0.082-0.286-0.089-0.217-0.069
				l0.317,0.069c0.423,0.086,0.842,0.231,1.28,0.256c0.433,0.062,0.869,0.127,1.313,0.115c0.221,0.003,0.443,0.023,0.666,0.02
				l0.669-0.052c0.898-0.048,1.787-0.271,2.677-0.518c0.863-0.327,1.745-0.666,2.539-1.189c0.831-0.465,1.545-1.113,2.256-1.761
				c0.641-0.717,1.292-1.448,1.757-2.313c0.107-0.201,0.29-0.442,0.346-0.606c0.075-0.173,0.156-0.343,0.246-0.511
				c0.048-0.111,0.084-0.107,0.148-0.311l0.178-0.516l0.356-1.034c-0.159,0.507-0.038,0.112-0.071,0.212l0.011-0.05l0.022-0.101
				l0.045-0.201l0.093-0.401l0.195-0.802c0.072-0.544,0.145-1.09,0.217-1.637c0.174-2.199-0.119-4.458-0.87-6.585
				c-0.748-2.128-1.952-4.119-3.512-5.78c-0.767-0.845-1.656-1.57-2.585-2.229c-0.452-0.35-0.979-0.586-1.457-0.898
				c-0.476-0.264-0.877-0.405-1.306-0.647c-0.068-0.053-0.322-0.122-0.482-0.182l-0.544-0.188l-1.088-0.375l-0.068-0.023
				c0.511,0.163,0.109,0.038,0.209,0.071L300.3,92.2l-0.224-0.051l-0.448-0.103l-0.895-0.213c-0.59-0.178-1.208-0.174-1.809-0.279
				c-0.303-0.033-0.603-0.1-0.907-0.11l-0.912-0.022c-2.426-0.072-4.862,0.238-7.16,0.972c-4.572,1.504-8.611,4.445-11.189,8.234
				c-0.367,0.442-0.62,0.958-0.915,1.441l-0.436,0.729c-0.15,0.243-0.212,0.457-0.327,0.683l-0.316,0.662l-0.164,0.328l-0.083,0.164
				l-0.085,0.246c-0.228,0.662-0.455,1.319-0.681,1.974l-0.084,0.245l-0.042,0.123c-0.082,0.257,0.087-0.281,0.066-0.207
				l-0.012,0.053l-0.096,0.424l-0.195,0.842c-0.123,0.561-0.286,1.111-0.381,1.67c-0.072,0.562-0.144,1.121-0.214,1.675
				c-0.08,0.554-0.163,1.104-0.15,1.658c-0.23,4.409,0.581,8.596,2.025,12.169l0.252,0.674l0.318,0.638
				c0.208,0.424,0.432,0.834,0.673,1.229c0.22,0.406,0.511,0.762,0.742,1.146c0.232,0.383,0.414,0.791,0.552,1.226
				c0.626,1.689,1.362,3.297,2.223,4.728c1.678,2.895,3.618,5.333,5.5,7.092c0.464,0.442,0.895,0.93,1.335,1.278
				c0.444,0.372,0.86,0.719,1.247,1.043c0.397,0.329,0.764,0.646,1.121,0.923c0.381,0.251,0.728,0.479,1.037,0.683
				C290.903,146.986,291.554,147.451,291.554,147.451z"/>
		</g>
		<g>
			<path fill="#F2D64A" d="M452.831,150.03c0,0,0.693-0.479,2.01-1.326c0.33-0.211,0.698-0.447,1.104-0.706
				c0.38-0.287,0.772-0.616,1.196-0.957c0.414-0.336,0.859-0.698,1.335-1.084c0.471-0.363,0.933-0.872,1.431-1.333
				c2.017-1.833,4.107-4.389,5.934-7.439c0.937-1.509,1.741-3.208,2.436-4.998c0.154-0.461,0.352-0.895,0.6-1.305
				c0.248-0.41,0.556-0.794,0.788-1.229c0.255-0.422,0.494-0.862,0.716-1.315l0.34-0.682l0.271-0.72
				c1.544-3.819,2.411-8.295,2.164-13.008c0.014-0.591-0.074-1.18-0.16-1.772c-0.075-0.593-0.152-1.19-0.229-1.791
				c-0.103-0.597-0.276-1.186-0.407-1.785l-0.208-0.9l-0.104-0.453l-0.013-0.057c-0.021-0.075,0.147,0.462,0.064,0.204l-0.044-0.129
				l-0.09-0.26c-0.238-0.692-0.479-1.388-0.72-2.087l-0.09-0.261l-0.091-0.177l-0.177-0.355l-0.341-0.718
				c-0.124-0.244-0.193-0.477-0.354-0.737l-0.468-0.782c-0.315-0.52-0.588-1.071-0.981-1.546c-2.765-4.064-7.095-7.218-11.998-8.831
				c-2.464-0.787-5.076-1.12-7.679-1.043l-0.979,0.024c-0.326,0.011-0.648,0.082-0.973,0.117c-0.645,0.113-1.307,0.109-1.94,0.3
				l-0.958,0.228l-0.48,0.11l-0.241,0.054l-0.12,0.027c0.099-0.033-0.305,0.092,0.205-0.07l-0.072,0.024l-1.15,0.397l-0.575,0.198
				c-0.17,0.065-0.435,0.136-0.513,0.194c-0.469,0.261-0.911,0.418-1.427,0.704c-0.515,0.336-1.082,0.591-1.569,0.968
				c-1.002,0.71-1.959,1.492-2.785,2.402c-1.682,1.79-2.979,3.934-3.784,6.227c-0.809,2.292-1.124,4.726-0.938,7.095
				c0.079,0.59,0.156,1.178,0.234,1.764l0.21,0.864l0.1,0.432l0.049,0.216l0.023,0.108l0.013,0.054
				c-0.033-0.1,0.09,0.299-0.07-0.209l0.377,1.094l0.188,0.545c0.032,0.107,0.061,0.163,0.085,0.2l0.075,0.14
				c0.099,0.187,0.189,0.375,0.272,0.568c0.063,0.183,0.259,0.441,0.377,0.66c0.506,0.938,1.21,1.733,1.906,2.509
				c0.77,0.705,1.546,1.406,2.446,1.911c0.86,0.567,1.816,0.936,2.753,1.29c0.965,0.269,1.93,0.51,2.903,0.562l0.726,0.056
				c0.241,0.004,0.482-0.018,0.723-0.021c0.48,0.013,0.954-0.058,1.424-0.125c0.475-0.028,0.928-0.183,1.387-0.277l0.344-0.076
				c0.07-0.02-0.471,0.151-0.213,0.068l0.059-0.02l0.117-0.041l0.235-0.081l0.934-0.322c0.174-0.086,0.262-0.149,0.401-0.211
				l0.195-0.084c0.073-0.036,0.167-0.103,0.25-0.15l0.519-0.301l0.479-0.353c0.338-0.208,0.592-0.514,0.896-0.753
				c0.254-0.293,0.544-0.551,0.766-0.861c0.23-0.304,0.468-0.598,0.646-0.929c0.22-0.305,0.354-0.653,0.48-0.996
				c0.188-0.714,0.406-1.353,0.794-1.987c0.681-1.292,1.032-2.748,1.082-4.215c0.037-1.551-0.147-2.675-0.688-3.931
				c-0.524-1.201-1.323-2.244-2.22-3.052c-1.811-1.621-3.912-2.337-5.37-2.559c-0.733-0.088-1.329-0.159-1.726-0.144
				c-0.405-0.007-0.614-0.01-0.614-0.01s0.186-0.096,0.546-0.283c0.361-0.206,0.918-0.449,1.697-0.715
				c0.391-0.109,0.837-0.224,1.342-0.337c0.503-0.062,1.072-0.193,1.69-0.196c1.248-0.091,2.73,0.045,4.351,0.551
				c1.618,0.499,3.388,1.372,5.061,2.8c1.671,1.358,3.208,3.629,4.126,5.931c0.969,2.374,1.502,5.216,1.326,8.281
				c-0.025,0.769-0.176,1.536-0.361,2.301c-0.256,0.742-0.56,1.483-0.946,2.186c-0.745,1.417-1.548,2.848-2.604,4.149
				c-0.505,0.665-1.104,1.268-1.691,1.886c-0.639,0.566-1.251,1.18-1.972,1.675c-0.353,0.257-0.703,0.521-1.067,0.766
				c-0.378,0.225-0.758,0.451-1.14,0.679c-0.197,0.112-0.374,0.223-0.589,0.333l-0.689,0.325c-0.452,0.208-0.952,0.43-1.381,0.603
				l-0.935,0.322l-0.235,0.081l-0.117,0.041l-0.392,0.125l-0.628,0.153c-0.843,0.194-1.684,0.427-2.563,0.515
				c-0.872,0.125-1.753,0.232-2.65,0.233c-0.447,0.01-0.897,0.033-1.347,0.023l-1.354-0.089c-1.813-0.122-3.617-0.529-5.397-1.062
				c-1.75-0.618-3.496-1.348-5.102-2.371c-1.644-0.959-3.12-2.212-4.521-3.554c-1.327-1.414-2.595-2.935-3.566-4.665
				c-0.25-0.446-0.507-0.811-0.742-1.332l-0.69-1.516c-0.098-0.232-0.253-0.561-0.298-0.715l-0.188-0.545l-0.377-1.094
				c-0.177-0.554-0.062-0.204-0.106-0.35l-0.021-0.087l-0.042-0.174l-0.084-0.349l-0.167-0.699l-0.323-1.404
				c-0.143-0.953-0.263-1.915-0.381-2.878c-0.31-3.876,0.204-7.866,1.518-11.599c1.31-3.734,3.412-7.217,6.157-10.136
				c1.357-1.475,2.91-2.769,4.558-3.923c0.81-0.599,1.711-1.059,2.57-1.582c0.903-0.5,1.974-0.948,2.966-1.391
				c0.866-0.334,1.562-0.548,2.351-0.829l0.071-0.025c0.56-0.176,0.206-0.061,0.354-0.105l0.176-0.043l0.352-0.085l0.704-0.168
				l1.408-0.329c0.933-0.251,1.907-0.298,2.859-0.446c0.479-0.054,0.956-0.14,1.438-0.162l1.446-0.048
				c3.851-0.116,7.715,0.396,11.344,1.553c7.237,2.35,13.574,7.014,17.688,13.014c0.562,0.716,0.991,1.514,1.455,2.285l0.681,1.162
				c0.227,0.383,0.419,0.858,0.625,1.283l0.597,1.312l0.291,0.656l0.144,0.328l0.092,0.264c0.241,0.7,0.48,1.396,0.72,2.088
				l0.089,0.259l0.045,0.129l0.105,0.334l0.019,0.077l0.147,0.612l0.29,1.22c0.182,0.813,0.399,1.615,0.539,2.427
				c0.108,0.818,0.217,1.631,0.324,2.44c0.109,0.808,0.216,1.611,0.215,2.418c0.345,6.438-0.848,12.552-2.95,17.745
				c-0.127,0.327-0.253,0.652-0.378,0.976c-0.151,0.312-0.303,0.623-0.452,0.931c-0.303,0.616-0.583,1.235-0.842,1.858
				c-0.476,1.268-1.226,2.371-2.065,3.347c-1.764,1.896-3.531,3.551-5.353,4.88c-3.62,2.67-7.061,4.375-10.015,5.284
				c-0.74,0.232-1.388,0.499-2.072,0.651c-0.678,0.16-1.312,0.285-1.89,0.407c-0.58,0.117-1.107,0.232-1.585,0.314
				c-0.479,0.045-0.914,0.087-1.304,0.124C453.672,149.98,452.831,150.03,452.831,150.03z"/>
		</g>
		<circle fill="#F2D64A" cx="485.276" cy="113.667" r="6.396"/>
		<circle fill="#F2D64A" cx="479.989" cy="98.73" r="5.23"/>
		<path fill="none" stroke="#F2D64A" stroke-width="12" stroke-miterlimit="10" d="M274.38,139.167
			c-33.411,21.622-44.62,68.37-22.999,101.783"/>
		<path fill="none" stroke="#F2D64A" stroke-width="12" stroke-miterlimit="10" d="M466.806,141.384
			c33.411,21.622,42.952,66.153,21.33,99.565"/>
		<g>
			<ellipse fill="#F2D64A" cx="361.047" cy="419.832" rx="10" ry="9.334"/>
			<ellipse fill="#F2D64A" cx="379.047" cy="419.832" rx="10" ry="9.334"/>
		</g>
		<ellipse fill="none" stroke="#F2D64A" stroke-width="4" stroke-miterlimit="10" cx="370.047" cy="415.5" rx="11.74" ry="16.666"/>
		<g>
			<path fill="#F2D64A" d="M370.046,50.974c0-2.918-9.547-19.455-12.917-22.373c3.37,2.918,22.466,2.918,25.835,0
				C379.595,31.519,370.046,48.056,370.046,50.974z"/>
		</g>
		<ellipse fill="none" stroke="#FFFFFF" stroke-miterlimit="10" cx="370.047" cy="30.875" rx="4.75" ry="9.625"/>
		<ellipse fill="#F2D64A" cx="370.047" cy="30.375" rx="4.75" ry="9.625"/>
		<ellipse fill="#F2D64A" cx="370.047" cy="10.374" rx="1.696" ry="2.542"/>
		<ellipse fill="#F2D64A" cx="376.047" cy="11.916" rx="1.334" ry="2"/>
		<ellipse fill="#F2D64A" cx="364.047" cy="11.916" rx="1.334" ry="2"/>
		<g>
			<path fill="#F2D64A" d="M373.214,42.479c0,0-0.271,0.015-0.779,0.043c-0.246,0.018-0.551,0.041-0.908,0.066
				c-0.172,0.017-0.359,0.038-0.529,0.076c-0.042,0.01-0.081,0.021-0.112,0.035c-0.005,0.011-0.097,0.039,0.061,0.039
				c0.057-0.007,0.114-0.022,0.169-0.044c-0.027,0.018,0.223-0.1,0.3-0.213c0.103-0.133,0.177-0.224,0.211-0.514
				c0.04-0.254-0.176-0.579-0.161-0.545c-0.031-0.045-0.068-0.088-0.109-0.126l-0.116-0.094c-0.089-0.059-0.072-0.053-0.077-0.067
				c0.002-0.018,0.035-0.025,0.068-0.034c0.299-0.066,0.715-0.2,1.058-0.412c0.18-0.095,0.324-0.266,0.505-0.309
				c0.185-0.041,0.371-0.107,0.535-0.222c0.337-0.214,0.652-0.519,0.922-0.945c0.135-0.211,0.258-0.452,0.366-0.717
				c0.056-0.132,0.105-0.271,0.152-0.416c0.062-0.189,0.127-0.38,0.191-0.572c0.063-0.182,0.127-0.365,0.191-0.55
				c0.078-0.2,0.19-0.436,0.288-0.654c0.195-0.464,0.439-0.853,0.682-1.265c0.517-0.801,1.129-1.589,1.89-2.267
				c0.742-0.696,1.611-1.303,2.578-1.767c0.959-0.478,2.018-0.825,3.127-0.977c1.105-0.155,2.264-0.174,3.395,0.051
				c0.287,0.033,0.562,0.121,0.842,0.191l0.42,0.112l0.052,0.014l0.026,0.007l0.1,0.034l0.088,0.033l0.175,0.066
				c0.396,0.133,1.115,0.462,1.607,0.778c2.075,1.267,3.576,3.408,4.137,5.764c0.286,1.178,0.345,2.411,0.175,3.605
				c-0.175,1.198-0.532,2.351-1.235,3.449c-0.682,1.048-1.62,1.919-2.694,2.527c-1.085,0.593-2.307,0.913-3.519,0.926
				c-0.604-0.012-1.207-0.069-1.779-0.22l-0.428-0.114l-0.053-0.015l-0.116-0.042l-0.082-0.031l-0.163-0.062
				c-0.172-0.052-0.578-0.256-0.846-0.399c-1.054-0.613-1.891-1.503-2.429-2.505c-0.552-0.997-0.799-2.104-0.814-3.168
				c0.011-0.533,0.057-1.059,0.184-1.557l0.046-0.187l0.022-0.093l0.012-0.046l0.034-0.114l0.097-0.279
				c0.051-0.17,0.214-0.544,0.322-0.765c0.452-0.979,1.378-1.584,2.221-1.964c0.874-0.359,1.773-0.47,2.568-0.349
				c0.396,0.058,0.77,0.152,1.103,0.299l0.124,0.052l0.103,0.041l0.047,0.027l0.187,0.108c0.137,0.083,0.333,0.202,0.461,0.305
				c0.532,0.423,0.884,0.925,1.098,1.4c0.424,0.969,0.314,1.78,0.204,2.261c-0.062,0.246-0.127,0.424-0.182,0.54
				c-0.051,0.115-0.077,0.175-0.077,0.175s0.043-0.265-0.008-0.732c-0.051-0.459-0.256-1.138-0.79-1.707
				c-0.263-0.282-0.611-0.52-1.005-0.654c-0.104-0.034-0.156-0.037-0.276-0.067l-0.211-0.043l-0.053-0.011
				c0.067,0.027-0.006,0.006-0.002,0.012l-0.086-0.004c-0.227-0.018-0.457-0.006-0.684,0.034c-0.453,0.07-0.888,0.295-1.242,0.599
				c-0.173,0.163-0.328,0.342-0.454,0.542c-0.107,0.215-0.24,0.395-0.374,0.595c-0.069,0.118-0.08,0.094-0.159,0.293l-0.098,0.279
				c-0.007,0.022,0.04-0.122,0.019-0.055l-0.003,0.013l-0.006,0.026l-0.012,0.052l-0.024,0.104c-0.075,0.276-0.093,0.566-0.104,0.86
				c0.014,0.585,0.145,1.201,0.45,1.745c0.293,0.55,0.744,1.017,1.287,1.338l0.164,0.084c0.03,0.015,0.046,0.029,0.086,0.048
				l0.163,0.062l0.164,0.062l0.082,0.031l0.021,0.007c-0.026-0.009,0.089,0.031-0.054-0.018l0.032,0.008l0.254,0.065
				c0.34,0.094,0.691,0.119,1.046,0.133c0.708-0.012,1.426-0.198,2.077-0.549c0.643-0.368,1.213-0.891,1.631-1.533
				c0.81-1.258,1.062-3.126,0.664-4.719c-0.386-1.625-1.42-3.08-2.793-3.916c-1.386-0.84-3.109-1.109-4.691-0.873
				c-0.793,0.104-1.553,0.355-2.244,0.702c-0.7,0.332-1.331,0.772-1.869,1.282c-0.558,0.49-1.001,1.071-1.382,1.656
				c-0.175,0.303-0.367,0.603-0.478,0.88c-0.064,0.146-0.133,0.264-0.199,0.428c-0.063,0.185-0.128,0.368-0.19,0.549
				c-0.058,0.171-0.114,0.34-0.171,0.508c-0.068,0.213-0.144,0.424-0.229,0.631c-0.17,0.415-0.374,0.816-0.615,1.195
				c-0.478,0.759-1.126,1.413-1.844,1.865c-0.361,0.221-0.725,0.414-1.087,0.575c-0.366,0.158-0.771,0.122-1.123,0.116
				c-0.723-0.044-1.314-0.19-1.894-0.434c-0.076-0.033-0.15-0.066-0.251-0.12c-0.057-0.031-0.092-0.045-0.227-0.13
				c-0.049-0.037-0.024-0.009-0.149-0.116c-0.046-0.042-0.088-0.09-0.124-0.14c0.008,0.031-0.206-0.302-0.167-0.563
				c0.03-0.297,0.11-0.392,0.219-0.529c0.083-0.118,0.336-0.242,0.316-0.225c0.067-0.025,0.138-0.043,0.208-0.054
				c0.263-0.016,0.276,0.024,0.373,0.042c0.071,0.023,0.133,0.047,0.189,0.072c0.225,0.099,0.402,0.2,0.569,0.295
				c0.33,0.188,0.59,0.373,0.8,0.522C373.005,42.3,373.214,42.479,373.214,42.479z"/>
		</g>
		<g>
			<path fill="#F2D64A" d="M366.889,42.479c0,0,0.208-0.178,0.628-0.474c0.209-0.149,0.469-0.333,0.799-0.522
				c0.167-0.095,0.345-0.196,0.569-0.295c0.057-0.024,0.119-0.049,0.19-0.072c0.097-0.018,0.11-0.058,0.373-0.042
				c0.07,0.011,0.141,0.029,0.208,0.054c-0.021-0.017,0.233,0.107,0.316,0.225c0.109,0.137,0.188,0.232,0.219,0.529
				c0.039,0.261-0.175,0.594-0.167,0.563c-0.036,0.05-0.078,0.098-0.124,0.14c-0.125,0.107-0.101,0.08-0.149,0.116
				c-0.135,0.085-0.17,0.099-0.227,0.13c-0.101,0.053-0.175,0.087-0.251,0.12c-0.579,0.244-1.17,0.39-1.894,0.434
				c-0.353,0.006-0.756,0.042-1.123-0.116c-0.362-0.161-0.725-0.354-1.086-0.575c-0.719-0.452-1.367-1.106-1.845-1.865
				c-0.241-0.378-0.445-0.78-0.614-1.195c-0.086-0.208-0.162-0.418-0.23-0.631c-0.056-0.167-0.113-0.336-0.17-0.508
				c-0.063-0.181-0.127-0.364-0.191-0.549c-0.066-0.164-0.134-0.282-0.199-0.428c-0.11-0.277-0.302-0.577-0.477-0.88
				c-0.381-0.585-0.824-1.166-1.381-1.656c-0.539-0.509-1.17-0.95-1.869-1.282c-0.691-0.347-1.451-0.598-2.245-0.702
				c-1.582-0.236-3.306,0.033-4.691,0.873c-1.374,0.835-2.408,2.29-2.794,3.916c-0.397,1.593-0.145,3.461,0.664,4.719
				c0.419,0.642,0.989,1.165,1.631,1.533c0.651,0.352,1.37,0.538,2.078,0.549c0.354-0.014,0.706-0.039,1.045-0.133l0.255-0.065
				l0.032-0.008c-0.142,0.049-0.028,0.009-0.054,0.018l0.021-0.007l0.083-0.031l0.164-0.062l0.164-0.062
				c0.04-0.019,0.056-0.033,0.085-0.048l0.164-0.084c0.544-0.321,0.994-0.788,1.288-1.338c0.306-0.544,0.436-1.16,0.451-1.745
				c-0.013-0.294-0.03-0.584-0.104-0.86l-0.025-0.104l-0.012-0.052l-0.006-0.026l-0.003-0.013c-0.021-0.067,0.026,0.077,0.019,0.055
				l-0.097-0.279c-0.08-0.199-0.09-0.175-0.159-0.293c-0.135-0.2-0.267-0.379-0.375-0.595c-0.125-0.2-0.28-0.379-0.454-0.542
				c-0.354-0.304-0.789-0.529-1.242-0.599c-0.226-0.04-0.457-0.052-0.683-0.034l-0.086,0.004c0.004-0.006-0.07,0.015-0.002-0.012
				l-0.054,0.011l-0.211,0.043c-0.12,0.03-0.171,0.033-0.276,0.067c-0.393,0.135-0.742,0.373-1.005,0.654
				c-0.534,0.569-0.739,1.248-0.79,1.707c-0.051,0.468-0.008,0.732-0.008,0.732s-0.026-0.06-0.077-0.175
				c-0.055-0.116-0.119-0.294-0.182-0.54c-0.11-0.481-0.22-1.292,0.205-2.261c0.213-0.475,0.565-0.977,1.097-1.4
				c0.127-0.103,0.324-0.222,0.461-0.305l0.187-0.108l0.047-0.027l0.102-0.041l0.125-0.052c0.332-0.147,0.706-0.242,1.102-0.299
				c0.794-0.122,1.694-0.011,2.568,0.349c0.843,0.38,1.768,0.985,2.221,1.964c0.108,0.221,0.271,0.595,0.321,0.765l0.097,0.279
				l0.034,0.114l0.011,0.046l0.023,0.093l0.045,0.187c0.126,0.498,0.172,1.024,0.184,1.557c-0.016,1.064-0.263,2.172-0.815,3.168
				c-0.538,1.002-1.375,1.892-2.428,2.505c-0.268,0.143-0.674,0.347-0.845,0.399l-0.164,0.062l-0.082,0.031l-0.116,0.042
				l-0.053,0.015l-0.428,0.114c-0.572,0.151-1.174,0.208-1.779,0.22c-1.211-0.013-2.434-0.333-3.519-0.926
				c-1.075-0.608-2.013-1.479-2.694-2.527c-0.703-1.099-1.061-2.251-1.236-3.449c-0.169-1.195-0.111-2.428,0.175-3.605
				c0.561-2.356,2.062-4.497,4.137-5.764c0.492-0.315,1.211-0.645,1.607-0.778l0.175-0.066l0.087-0.033l0.099-0.034l0.026-0.007
				l0.052-0.014l0.419-0.112c0.28-0.07,0.555-0.158,0.843-0.191c1.131-0.226,2.289-0.207,3.394-0.051
				c1.11,0.151,2.168,0.499,3.127,0.977c0.968,0.464,1.836,1.071,2.578,1.767c0.762,0.678,1.374,1.466,1.89,2.267
				c0.242,0.412,0.487,0.801,0.682,1.265c0.098,0.218,0.21,0.454,0.288,0.654c0.064,0.185,0.128,0.368,0.191,0.55
				c0.065,0.192,0.129,0.383,0.192,0.572c0.046,0.145,0.096,0.284,0.151,0.416c0.108,0.265,0.232,0.505,0.367,0.717
				c0.27,0.426,0.585,0.73,0.922,0.945c0.165,0.115,0.351,0.181,0.535,0.222c0.181,0.043,0.326,0.213,0.505,0.309
				c0.343,0.211,0.759,0.346,1.058,0.412c0.033,0.009,0.066,0.016,0.069,0.034c-0.005,0.014,0.011,0.008-0.078,0.067l-0.116,0.094
				c-0.041,0.038-0.079,0.081-0.11,0.126c0.015-0.034-0.201,0.291-0.161,0.545c0.034,0.29,0.108,0.381,0.211,0.514
				c0.078,0.114,0.328,0.231,0.3,0.213c0.054,0.022,0.112,0.037,0.169,0.044c0.158,0,0.065-0.028,0.061-0.039
				c-0.031-0.014-0.07-0.025-0.112-0.035c-0.17-0.039-0.357-0.059-0.529-0.076c-0.358-0.026-0.662-0.048-0.909-0.066
				C367.16,42.494,366.889,42.479,366.889,42.479z"/>
		</g>
		<ellipse fill="none" stroke="#F2D64A" stroke-width="3" stroke-miterlimit="10" cx="398.532" cy="65.415" rx="5.225" ry="7.418"/>
		<ellipse fill="none" stroke="#F2D64A" stroke-width="3" stroke-miterlimit="10" cx="341.532" cy="65.415" rx="5.225" ry="7.418"/>
		<circle fill="#F2D64A" cx="479.989" cy="128.73" r="5.23"/>
		<circle fill="#F2D64A" cx="260.488" cy="113.667" r="6.396"/>
		<circle fill="#F2D64A" cx="265.776" cy="98.73" r="5.23"/>
		<circle fill="#F2D64A" cx="265.776" cy="128.73" r="5.23"/>
	</g>
</g>
</svg>
