<?xml version="1.0" encoding="utf-8"?>
<!-- Generator: Adobe Illustrator 16.0.0, SVG Export Plug-In . SVG Version: 6.00 Build 0)  -->
<!DOCTYPE svg PUBLIC "-//W3C//DTD SVG 1.1//EN" "http://www.w3.org/Graphics/SVG/1.1/DTD/svg11.dtd">
<svg version="1.1" id="Layer_1" xmlns="http://www.w3.org/2000/svg" xmlns:xlink="http://www.w3.org/1999/xlink" x="0px" y="0px"
	 width="740px" height="440px" viewBox="0 0 740 440" enable-background="new 0 0 740 440" xml:space="preserve">
<g>
	<g>
		<path fill="#F2D64A" d="M263.862,133.65c-46.329,0-52.863,6.534-52.864,52.863c0.001-46.329-6.532-52.863-52.861-52.863
			c46.329,0,52.862-6.534,52.861-52.863C210.999,127.117,217.533,133.65,263.862,133.65z"/>
	</g>
	<g>
		<path fill="#F2D64A" d="M445.27,208.5c-66.844-0.001-76.271,9.426-76.272,76.27c0.002-66.844-9.425-76.271-76.268-76.27
			c66.843-0.001,76.27-9.428,76.268-76.271C368.999,199.072,378.426,208.499,445.27,208.5z"/>
	</g>
	<g>
		<path fill="#F2D64A" d="M515.861,289.65c-46.328,0-52.862,6.533-52.864,52.863c0.002-46.33-6.532-52.863-52.86-52.863
			c46.328,0,52.862-6.533,52.86-52.863C462.999,283.117,469.533,289.65,515.861,289.65z"/>
	</g>
	<g>
		<path fill="#F2D64A" d="M289.329,314.5c-30.964,0-35.331,4.367-35.332,35.33c0.001-30.963-4.365-35.33-35.33-35.33
			c30.965,0,35.331-4.367,35.33-35.33C253.998,310.133,258.365,314.5,289.329,314.5z"/>
	</g>
	<g>
		<path fill="#F2D64A" d="M528.33,95.5c-30.965,0-35.332,4.367-35.332,35.331c0-30.964-4.367-35.331-35.332-35.331
			c30.965,0,35.332-4.367,35.332-35.331C492.998,91.133,497.365,95.5,528.33,95.5z"/>
	</g>
	<g>
		<path fill="#F2D64A" d="M333.211,166.499c-24.726,0-28.213,3.487-28.214,28.212c0.001-24.726-3.486-28.212-28.211-28.212
			c24.726,0,28.212-3.487,28.211-28.212C304.998,163.012,308.485,166.499,333.211,166.499z"/>
	</g>
	<g>
		<path fill="#F2D64A" d="M601.211,303.65c-24.727,0-28.213,3.486-28.213,28.213c0-24.727-3.486-28.213-28.213-28.213
			c24.727,0,28.213-3.486,28.213-28.213C572.998,300.164,576.484,303.65,601.211,303.65z"/>
	</g>
	<g>
		<path fill="#F2D64A" d="M595.043,172.575c-48.242,0-55.045,6.803-55.045,55.042c0-48.239-6.803-55.042-55.045-55.042
			c48.242,0,55.045-6.803,55.045-55.043C539.998,165.772,546.801,172.575,595.043,172.575z"/>
	</g>
	<g>
		<path fill="#F2D64A" d="M243.043,268.575c-48.241,0-55.045,6.804-55.046,55.042c0.001-48.238-6.802-55.042-55.043-55.042
			c48.241,0,55.044-6.804,55.043-55.042C187.998,261.771,194.802,268.575,243.043,268.575z"/>
	</g>
	<g>
		<path d="M450.211,142.499c-24.727,0-28.213,3.487-28.213,28.212c0-24.726-3.486-28.212-28.213-28.212
			c24.727,0,28.213-3.487,28.213-28.212C421.998,139.012,425.484,142.499,450.211,142.499z"/>
	</g>
	<g>
		<path d="M332.211,253.499c-24.726,0-28.213,3.487-28.214,28.212c0.001-24.725-3.485-28.212-28.211-28.212
			c24.726,0,28.212-3.487,28.211-28.212C303.998,250.012,307.485,253.499,332.211,253.499z"/>
	</g>
	<g>
		<path d="M632.211,232.65c-24.727,0-28.213,3.486-28.213,28.213c0-24.727-3.486-28.213-28.213-28.213
			c24.727,0,28.213-3.486,28.213-28.212C603.998,229.164,607.484,232.65,632.211,232.65z"/>
	</g>
	<g>
		<path d="M328.585,84.576c-37.322,0-42.586,5.263-42.588,42.585c0.002-37.322-5.261-42.585-42.583-42.585
			c37.322,0,42.585-5.263,42.583-42.585C285.999,79.312,291.263,84.576,328.585,84.576z"/>
	</g>
	<g>
		<path d="M452.585,345.576c-37.322,0-42.586,5.263-42.588,42.585c0.002-37.322-5.262-42.585-42.584-42.585
			c37.322,0,42.586-5.264,42.584-42.586C409.999,340.312,415.263,345.576,452.585,345.576z"/>
	</g>
	<g>
		<path d="M187.266,187.577c-46.683-0.001-53.266,6.582-53.269,53.264c0.003-46.682-6.581-53.265-53.263-53.264
			c46.683-0.001,53.266-6.584,53.263-53.266C134,180.993,140.583,187.576,187.266,187.577z"/>
	</g>
	<g>
		<path d="M659.266,105.577c-46.684-0.001-53.267,6.582-53.269,53.264c0.002-46.682-6.581-53.265-53.265-53.264
			c46.684-0.001,53.267-6.584,53.265-53.266C605.999,98.993,612.582,105.576,659.266,105.577z"/>
	</g>
	<g>
		<path d="M191.674,351.65c-22.502,0-25.676,3.173-25.677,25.675c0.001-22.502-3.172-25.675-25.674-25.675
			c22.502,0,25.675-3.174,25.674-25.676C165.998,348.477,169.172,351.65,191.674,351.65z"/>
	</g>
	<g>
		<path d="M642.672,352.65c-22.5,0-25.674,3.174-25.674,25.674c0-22.5-3.174-25.674-25.674-25.674
			c22.5,0,25.674-3.174,25.674-25.674C616.998,349.477,620.172,352.65,642.672,352.65z"/>
	</g>
	<g>
		<path fill="#F2D64A" d="M185.211,82.499c-24.726,0-28.213,3.487-28.214,28.212c0.001-24.726-3.486-28.212-28.211-28.212
			c24.726,0,28.212-3.487,28.211-28.212C156.998,79.012,160.485,82.499,185.211,82.499z"/>
	</g>
	<g>
		<path fill="#F2D64A" d="M357.211,363.499c-24.726,0-28.213,3.487-28.214,28.212c0.001-24.725-3.486-28.212-28.211-28.212
			c24.726,0,28.212-3.487,28.211-28.212C328.998,360.012,332.485,363.499,357.211,363.499z"/>
	</g>
	<g>
		<path fill="#F2D64A" d="M408.31,75.499c-16.924,0.001-19.311,2.388-19.312,19.312c0.002-16.925-2.385-19.312-19.309-19.312
			c16.924,0.001,19.311-2.386,19.309-19.311C388.999,73.113,391.386,75.5,408.31,75.499z"/>
	</g>
</g>
</svg>
