<?xml version="1.0" encoding="utf-8"?>
<!-- Generator: Adobe Illustrator 16.0.0, SVG Export Plug-In . SVG Version: 6.00 Build 0)  -->
<!DOCTYPE svg PUBLIC "-//W3C//DTD SVG 1.1//EN" "http://www.w3.org/Graphics/SVG/1.1/DTD/svg11.dtd">
<svg version="1.1" id="Layer_1" xmlns="http://www.w3.org/2000/svg" xmlns:xlink="http://www.w3.org/1999/xlink" x="0px" y="0px"
	 width="740px" height="440px" viewBox="0 0 740 440" enable-background="new 0 0 740 440" xml:space="preserve">
<g>
	<polyline fill="none" stroke="#000000" stroke-width="20" stroke-miterlimit="10" points="0,160.5 67.268,186.5 134.539,160.5 
		201.811,186.5 269.082,160.5 336.354,186.5 403.627,160.5 470.896,186.5 538.169,160.5 605.444,186.5 672.723,160.5 740,186.5 	"/>
</g>
<g>
	<polyline fill="none" stroke="#000000" stroke-width="20" stroke-miterlimit="10" points="23,120.5 90.268,146.5 157.539,120.5 
		224.811,146.5 292.082,120.5 359.354,146.5 426.627,120.5 493.896,146.5 561.169,120.5 628.444,146.5 695.723,120.5 763,146.5 	"/>
</g>
<g>
	<polyline fill="none" stroke="#000000" stroke-width="20" stroke-miterlimit="10" points="20,198.5 87.268,224.5 154.539,198.5 
		221.811,224.5 289.082,198.5 356.354,224.5 423.627,198.5 490.896,224.5 558.169,198.5 625.444,224.5 692.723,198.5 760,224.5 	"/>
</g>
<g>
	<polyline fill="none" stroke="#000000" stroke-width="20" stroke-miterlimit="10" points="0,81.5 67.268,107.5 134.539,81.5 
		201.811,107.5 269.082,81.5 336.354,107.5 403.627,81.5 470.896,107.5 538.169,81.5 605.444,107.5 672.723,81.5 740,107.5 	"/>
</g>
<g>
	<polyline fill="none" stroke="#000000" stroke-width="20" stroke-miterlimit="10" points="0,236.5 67.268,262.5 134.539,236.5 
		201.811,262.5 269.082,236.5 336.354,262.5 403.627,236.5 470.896,262.5 538.169,236.5 605.444,262.5 672.723,236.5 740,262.5 	"/>
</g>
</svg>
