<?xml version="1.0" encoding="utf-8"?>
<!-- Generator: Adobe Illustrator 16.0.0, SVG Export Plug-In . SVG Version: 6.00 Build 0)  -->
<!DOCTYPE svg PUBLIC "-//W3C//DTD SVG 1.1//EN" "http://www.w3.org/Graphics/SVG/1.1/DTD/svg11.dtd">
<svg version="1.1" id="Layer_1" xmlns="http://www.w3.org/2000/svg" xmlns:xlink="http://www.w3.org/1999/xlink" x="0px" y="0px"
	 width="740px" height="440px" viewBox="0 0 740 440" enable-background="new 0 0 740 440" xml:space="preserve">
<g>
	<g>
		<g>
			<path d="M603.133,318.13c-137.877-47.338-275.844-84.995-413.713-130.314c6.021-18.964,12.042-37.818,18.062-56.573
				c137.877,47.338,275.844,84.995,413.713,130.314C615.175,280.521,609.153,299.375,603.133,318.13z"/>
		</g>
		<path d="M242.179,141.126c-5.527,17.477-24.177,27.164-41.654,21.635c-17.478-5.528-27.165-24.177-21.638-41.655
			c5.53-17.478,24.18-27.164,41.656-21.636C238.021,104.998,247.708,123.649,242.179,141.126z"/>
		<circle cx="195.397" cy="176.971" r="33.191"/>
		<path d="M654.324,269.408c-5.529,17.477-24.18,27.164-41.658,21.635c-17.477-5.527-27.162-24.176-21.635-41.652
			c5.529-17.479,24.178-27.168,41.656-21.637C650.164,233.281,659.852,251.934,654.324,269.408z"/>
		<circle cx="607.075" cy="308.885" r="33.191"/>
	</g>
	<g>
		<g>
			<path fill="#F2D64A" d="M551.48,196.351c-140.646,34.777-281.394,62.81-422.046,100.365
				c-4.637-19.183-9.274-38.462-13.911-57.845c140.646-34.779,281.393-62.81,422.046-100.366
				C542.206,157.688,546.844,176.967,551.48,196.351z"/>
		</g>
		<circle fill="#F2D64A" cx="117.321" cy="236.945" r="33.191"/>
		<circle fill="#F2D64A" cx="128.979" cy="284.763" r="33.191"/>
		<circle fill="#F2D64A" cx="538.039" cy="135.385" r="33.191"/>
		<path fill="#F2D64A" d="M582.107,178.218c4.26,17.829-6.742,35.733-24.574,39.992c-17.828,4.258-35.732-6.744-39.99-24.574
			c-4.258-17.831,6.742-35.735,24.572-39.993C559.947,149.385,577.852,160.386,582.107,178.218z"/>
	</g>
</g>
</svg>
