<?xml version="1.0" encoding="utf-8"?>
<!-- Generator: Adobe Illustrator 16.0.0, SVG Export Plug-In . SVG Version: 6.00 Build 0)  -->
<!DOCTYPE svg PUBLIC "-//W3C//DTD SVG 1.1//EN" "http://www.w3.org/Graphics/SVG/1.1/DTD/svg11.dtd">
<svg version="1.1" id="Layer_1" xmlns="http://www.w3.org/2000/svg" xmlns:xlink="http://www.w3.org/1999/xlink" x="0px" y="0px"
	 width="300px" height="300px" viewBox="0 0 300 300" enable-background="new 0 0 300 300" xml:space="preserve">
<g>
	<circle fill="#827B75" cx="150" cy="150" r="139.25"/>
	<g>
		<path fill="none" stroke="#FFFFFF" stroke-width="3" stroke-miterlimit="10" d="M260.697,150
			c0,61.138-49.561,110.697-110.697,110.697c-61.138,0-110.698-49.559-110.698-110.697c0-61.137,49.56-110.698,110.698-110.698
			C211.135,39.302,260.697,88.863,260.697,150z"/>
		<circle fill="none" stroke="#FFFFFF" stroke-width="8" stroke-miterlimit="10" cx="150" cy="150.001" r="102.425"/>
		
			<text transform="matrix(1 0 0 1 76.436 165.4648)" fill="#FFFFFF" font-family="'GandhiSans-Bold'" font-size="22.5006" letter-spacing="4">EKPHRASI</text>
		<text transform="matrix(1 0 0 1 212.585 165.4648)" fill="#FFFFFF" font-family="'GandhiSans-Bold'" font-size="22.5006">S</text>
		<g opacity="0.8">
			<g>
				<g>
					<g>
						<g>
							<rect x="94.049" y="179.867" fill="#FFFFFF" width="3.578" height="1.432"/>
							<rect x="99.378" y="179.867" fill="#FFFFFF" width="3.578" height="1.432"/>
							<rect x="104.706" y="179.867" fill="#FFFFFF" width="3.578" height="1.432"/>
							<rect x="110.036" y="179.867" fill="#FFFFFF" width="3.577" height="1.432"/>
							<rect x="115.363" y="179.867" fill="#FFFFFF" width="3.579" height="1.432"/>
							<rect x="120.693" y="179.867" fill="#FFFFFF" width="3.578" height="1.432"/>
							<rect x="126.021" y="179.867" fill="#FFFFFF" width="3.578" height="1.432"/>
						</g>
					</g>
					<g>
						<g>
							<rect x="131.349" y="179.867" fill="#FFFFFF" width="3.578" height="1.432"/>
							<rect x="136.677" y="179.867" fill="#FFFFFF" width="3.578" height="1.432"/>
							<rect x="142.006" y="179.867" fill="#FFFFFF" width="3.579" height="1.432"/>
							<rect x="147.335" y="179.867" fill="#FFFFFF" width="3.578" height="1.432"/>
							<rect x="152.664" y="179.867" fill="#FFFFFF" width="3.576" height="1.432"/>
							<rect x="157.992" y="179.867" fill="#FFFFFF" width="3.578" height="1.432"/>
							<rect x="163.32" y="179.867" fill="#FFFFFF" width="3.578" height="1.432"/>
						</g>
					</g>
					<g>
						<g>
							<rect x="168.648" y="179.867" fill="#FFFFFF" width="3.578" height="1.432"/>
							<rect x="173.979" y="179.867" fill="#FFFFFF" width="3.578" height="1.432"/>
							<rect x="179.307" y="179.867" fill="#FFFFFF" width="3.578" height="1.432"/>
							<rect x="184.637" y="179.867" fill="#FFFFFF" width="3.578" height="1.432"/>
							<rect x="189.965" y="179.867" fill="#FFFFFF" width="3.576" height="1.432"/>
							<rect x="195.293" y="179.867" fill="#FFFFFF" width="3.578" height="1.432"/>
							<rect x="200.621" y="179.867" fill="#FFFFFF" width="3.576" height="1.432"/>
						</g>
					</g>
				</g>
			</g>
		</g>
		<g>
			<g>
				<path fill="#FFFFFF" d="M107.611,105.617c0.949-0.378,1.901-0.744,2.858-1.096c0.028-0.815,0.063-1.63,0.103-2.448
					c0.129-0.045,0.258-0.092,0.388-0.138c0.274,0.908,0.551,1.816,0.828,2.725c-2.301,0.818-4.581,1.714-6.836,2.69
					c-0.054-0.123-0.106-0.245-0.159-0.368c0.31-0.244,0.621-0.487,0.935-0.728c-1.014-2.411-2.027-4.821-3.041-7.231
					c-0.417,0.065-0.834,0.133-1.25,0.203c-0.053-0.123-0.106-0.246-0.159-0.369c1.412-0.61,2.833-1.192,4.262-1.747
					c0.048,0.124,0.097,0.25,0.144,0.374c-0.344,0.242-0.688,0.486-1.029,0.731C105.64,100.685,106.625,103.15,107.611,105.617z"/>
				<path fill="#FFFFFF" d="M120.233,98.695c-0.937,0.242-1.871,0.498-2.804,0.764c-0.106,0.908-0.205,1.813-0.296,2.719
					c0.387-0.009,0.772-0.016,1.159-0.021c0.037,0.128,0.073,0.256,0.11,0.386c-0.97,0.277-1.936,0.568-2.899,0.872
					c-0.04-0.127-0.081-0.254-0.121-0.382c0.333-0.216,0.668-0.431,1.004-0.644c0.344-3.146,0.788-6.301,1.33-9.458
					c0.165-0.044,0.33-0.088,0.494-0.131c1.973,2.493,3.86,5.031,5.66,7.609c0.39,0.015,0.78,0.03,1.167,0.05
					c0.029,0.131,0.057,0.261,0.085,0.391c-1.407,0.308-2.809,0.643-4.205,1.007c-0.034-0.129-0.067-0.258-0.101-0.387
					c0.332-0.201,0.665-0.399,1-0.597C121.297,100.142,120.769,99.417,120.233,98.695z M117.515,98.79
					c0.772-0.218,1.545-0.43,2.32-0.632c-0.621-0.841-1.252-1.68-1.891-2.512C117.79,96.694,117.647,97.742,117.515,98.79z"/>
				<path fill="#FFFFFF" d="M135.335,90.51c-0.411-0.061-0.823-0.119-1.235-0.174c-0.016-0.128-0.032-0.256-0.048-0.385
					c1.403-0.172,2.806-0.319,4.211-0.441c2.356-0.204,4.02,0.136,4.113,2.01c0.067,1.328-0.915,2.346-3.126,2.703
					c0.949,0.047,1.574,0.297,2.167,1.13c0.501,0.702,0.993,1.407,1.479,2.115c0.263,0.388,0.553,0.512,1.177,0.541
					c0.006,0.133,0.011,0.267,0.018,0.4c-0.224,0.078-1.12,0.243-1.698,0.277c-0.619,0.035-1.027-0.172-1.424-0.755
					c-0.655-0.957-1.326-1.908-2.013-2.851c-0.332-0.443-0.513-0.649-0.981-0.605c-0.055,0.005-0.107,0.01-0.161,0.015
					c0.115,1.21,0.229,2.42,0.343,3.63c0.382,0.061,0.765,0.123,1.145,0.188c0.012,0.133,0.022,0.267,0.034,0.4
					c-1.386,0.117-2.771,0.26-4.152,0.43c-0.017-0.132-0.033-0.266-0.049-0.397c0.36-0.146,0.72-0.291,1.08-0.433
					C135.92,95.707,135.628,93.108,135.335,90.51z M137.765,94.007c0.232-0.021,0.461-0.042,0.692-0.063
					c1.394-0.122,1.941-0.985,1.852-2.254c-0.076-1.114-0.675-1.784-1.984-1.671c-0.381,0.033-0.649,0.114-0.918,0.194
					C137.526,91.478,137.646,92.742,137.765,94.007z"/>
				<path fill="#FFFFFF" d="M147.613,97.919c0.373-0.104,0.746-0.207,1.121-0.307c0.004-2.615,0.007-5.23,0.011-7.845
					c-0.402-0.102-0.803-0.202-1.206-0.3c-0.001-0.133-0.002-0.267-0.003-0.4c2.554-0.022,5.108,0.037,7.657,0.179
					c-0.045,0.822-0.09,1.646-0.137,2.469c-0.139-0.008-0.279-0.016-0.418-0.023c-0.248-0.645-0.5-1.288-0.756-1.93
					c-1.018-0.046-2.033-0.079-3.049-0.098c-0.021,1.179-0.044,2.356-0.066,3.535c0.565,0.01,1.133,0.026,1.7,0.045
					c0.188-0.451,0.378-0.899,0.569-1.348c0.129,0.004,0.26,0.01,0.389,0.016c-0.047,1.104-0.092,2.208-0.138,3.312
					c-0.126-0.006-0.251-0.01-0.38-0.015c-0.15-0.463-0.305-0.924-0.459-1.385c-0.565-0.02-1.13-0.034-1.693-0.044
					c-0.025,1.326-0.051,2.65-0.076,3.977c0.984,0.019,1.969,0.049,2.955,0.095c0.334-0.717,0.678-1.433,1.023-2.148
					c0.137,0.008,0.273,0.016,0.408,0.023c-0.098,0.921-0.193,1.842-0.288,2.764c-2.386-0.134-4.773-0.191-7.161-0.17
					C147.616,98.187,147.614,98.053,147.613,97.919z"/>
				<path fill="#FFFFFF" d="M164.689,96.892c1.113-1.849,2.268-3.682,3.465-5.498c-0.377-0.166-0.754-0.329-1.129-0.491
					c0.021-0.132,0.041-0.264,0.061-0.396c1.088,0.171,2.176,0.357,3.26,0.559c-0.025,0.131-0.049,0.262-0.074,0.394
					c-0.42,0.029-0.842,0.061-1.26,0.095c-1.789,2.618-3.482,5.274-5.088,7.963c-0.178-0.025-0.355-0.05-0.533-0.074
					c-0.73-3.018-1.553-6.03-2.465-9.032c-0.389-0.142-0.779-0.283-1.17-0.421c0.014-0.133,0.025-0.266,0.039-0.399
					c1.557,0.147,3.111,0.325,4.664,0.534c-0.018,0.132-0.035,0.265-0.055,0.397c-0.408,0.056-0.816,0.115-1.225,0.176
					C163.723,92.759,164.227,94.824,164.689,96.892z"/>
				<path fill="#FFFFFF" d="M183.141,94.919c-0.504,1.652-1.008,3.303-1.512,4.954c-0.719,2.31-2.574,2.933-4.518,2.41
					c-1.711-0.468-3.715-1.53-3.135-4.101c0.414-1.794,0.828-3.588,1.242-5.382c-0.371-0.19-0.742-0.377-1.117-0.563
					c0.029-0.13,0.057-0.26,0.086-0.391c1.48,0.325,2.955,0.679,4.424,1.062c-0.033,0.129-0.066,0.258-0.102,0.387
					c-0.416-0.004-0.832-0.006-1.25-0.006c-0.436,1.747-0.871,3.493-1.309,5.24c-0.404,1.651,0.254,2.733,1.658,3.115
					c1.375,0.374,2.721-0.171,3.289-2.063c0.486-1.632,0.973-3.265,1.459-4.898c-0.359-0.211-0.721-0.423-1.082-0.632
					c0.035-0.128,0.07-0.256,0.109-0.386c1.045,0.3,2.088,0.613,3.129,0.942c-0.041,0.128-0.082,0.254-0.121,0.382
					C183.975,94.965,183.557,94.941,183.141,94.919z"/>
				<path fill="#FFFFFF" d="M185.449,104.259c0.391,0.031,0.781,0.064,1.174,0.101c0.898-2.456,1.799-4.911,2.697-7.366
					c-0.346-0.234-0.695-0.469-1.045-0.7c0.045-0.125,0.09-0.252,0.133-0.377c2.443,0.866,4.863,1.815,7.256,2.844
					c-0.324,0.757-0.65,1.515-0.977,2.271c-0.131-0.056-0.264-0.113-0.395-0.168c-0.018-0.692-0.037-1.385-0.061-2.08
					c-0.957-0.398-1.918-0.784-2.881-1.157c-0.426,1.098-0.852,2.197-1.277,3.297c0.539,0.208,1.076,0.42,1.609,0.637
					c0.334-0.357,0.672-0.712,1.008-1.067c0.123,0.05,0.246,0.101,0.367,0.151c-0.422,1.021-0.844,2.042-1.266,3.063
					c-0.119-0.049-0.238-0.099-0.355-0.147c0.012-0.487,0.021-0.975,0.031-1.463c-0.531-0.216-1.066-0.427-1.602-0.634
					c-0.479,1.237-0.957,2.474-1.434,3.71c0.934,0.361,1.865,0.736,2.791,1.125c0.568-0.556,1.141-1.108,1.719-1.657
					c0.127,0.055,0.252,0.109,0.381,0.164c-0.41,0.832-0.816,1.664-1.223,2.496c-2.238-0.966-4.502-1.854-6.785-2.663
					C185.361,104.511,185.406,104.385,185.449,104.259z"/>
			</g>
		</g>
		
			<text transform="matrix(1 0 0 1 120.9238 130.0273)" opacity="0.8" fill="#FFFFFF" enable-background="new    " font-family="'Times-Italic'" font-size="12.5739">littéraire</text>
		<g>
			<path fill="#FFFFFF" d="M153.666,204.254c3.027,1.75,3.027,4.611,0,6.357l-2.874,1.66c-3.029,1.748-5.507,0.318-5.507-3.18
				v-3.318c0-3.498,2.479-4.928,5.507-3.18L153.666,204.254z M149.958,204.914c-1.392,0-2.521,1.127-2.521,2.52
				s1.129,2.518,2.521,2.518c1.392,0,2.519-1.125,2.519-2.518S151.35,204.914,149.958,204.914z"/>
		</g>
		<circle fill="none" stroke="#FFFFFF" stroke-width="2" stroke-miterlimit="10" cx="150" cy="207.432" r="11.629"/>
	</g>
</g>
</svg>
